<?xml version="1.0" encoding="utf-8" standalone="no"?>
<!DOCTYPE svg PUBLIC "-//W3C//DTD SVG 1.1//EN"
  "http://www.w3.org/Graphics/SVG/1.1/DTD/svg11.dtd">
<svg height="360pt" version="1.1" viewBox="0 0 576 360" width="576pt" xmlns="http://www.w3.org/2000/svg" xmlns:xlink="http://www.w3.org/1999/xlink">
 <metadata>
  <rdf:RDF xmlns:cc="http://creativecommons.org/ns#" xmlns:dc="http://purl.org/dc/elements/1.1/" xmlns:rdf="http://www.w3.org/1999/02/22-rdf-syntax-ns#">
   <cc:Work>
    <dc:type rdf:resource="http://purl.org/dc/dcmitype/StillImage"/>
    <dc:date>2022-02-02T15:35:19.369035</dc:date>
    <dc:format>image/svg+xml</dc:format>
    <dc:creator>
     <cc:Agent>
      <dc:title>Matplotlib v3.4.3, https://matplotlib.org/</dc:title>
     </cc:Agent>
    </dc:creator>
   </cc:Work>
  </rdf:RDF>
 </metadata>
 <defs>
  <style type="text/css">*{stroke-linecap:butt;stroke-linejoin:round;}</style>
 </defs>
 <g id="figure_1">
  <g id="patch_1">
   <path d="M 0 360 
L 576 360 
L 576 0 
L 0 0 
z
" style="fill:#ffffff;"/>
  </g>
  <g id="axes_1">
   <g id="patch_2">
    <path d="M 228.052 140.724 
L 535.2605 140.724 
L 535.2605 32.552 
L 228.052 32.552 
z
" style="fill:#ffffff;"/>
   </g>
   <g id="matplotlib.axis_1">
    <g id="xtick_1">
     <g id="line2d_1">
      <path clip-path="url(#p36e3663fb3)" d="M 228.052 140.724 
L 228.052 32.552 
" style="fill:none;stroke:#cccccc;stroke-linecap:round;"/>
     </g>
     <g id="text_1">
      <!-- 0 -->
      <g style="fill:#262626;" transform="translate(223.85275 160.253938)scale(0.132 -0.132)">
       <defs>
        <path d="M 2034 4250 
Q 1547 4250 1301 3770 
Q 1056 3291 1056 2328 
Q 1056 1369 1301 889 
Q 1547 409 2034 409 
Q 2525 409 2770 889 
Q 3016 1369 3016 2328 
Q 3016 3291 2770 3770 
Q 2525 4250 2034 4250 
z
M 2034 4750 
Q 2819 4750 3233 4129 
Q 3647 3509 3647 2328 
Q 3647 1150 3233 529 
Q 2819 -91 2034 -91 
Q 1250 -91 836 529 
Q 422 1150 422 2328 
Q 422 3509 836 4129 
Q 1250 4750 2034 4750 
z
" id="DejaVuSans-30" transform="scale(0.015625)"/>
       </defs>
       <use xlink:href="#DejaVuSans-30"/>
      </g>
     </g>
    </g>
    <g id="xtick_2">
     <g id="line2d_2">
      <path clip-path="url(#p36e3663fb3)" d="M 304.854125 140.724 
L 304.854125 32.552 
" style="fill:none;stroke:#cccccc;stroke-linecap:round;"/>
     </g>
     <g id="text_2">
      <!-- 50000 -->
      <g style="fill:#262626;" transform="translate(283.857875 160.253938)scale(0.132 -0.132)">
       <defs>
        <path d="M 691 4666 
L 3169 4666 
L 3169 4134 
L 1269 4134 
L 1269 2991 
Q 1406 3038 1543 3061 
Q 1681 3084 1819 3084 
Q 2600 3084 3056 2656 
Q 3513 2228 3513 1497 
Q 3513 744 3044 326 
Q 2575 -91 1722 -91 
Q 1428 -91 1123 -41 
Q 819 9 494 109 
L 494 744 
Q 775 591 1075 516 
Q 1375 441 1709 441 
Q 2250 441 2565 725 
Q 2881 1009 2881 1497 
Q 2881 1984 2565 2268 
Q 2250 2553 1709 2553 
Q 1456 2553 1204 2497 
Q 953 2441 691 2322 
L 691 4666 
z
" id="DejaVuSans-35" transform="scale(0.015625)"/>
       </defs>
       <use xlink:href="#DejaVuSans-35"/>
       <use x="63.623047" xlink:href="#DejaVuSans-30"/>
       <use x="127.246094" xlink:href="#DejaVuSans-30"/>
       <use x="190.869141" xlink:href="#DejaVuSans-30"/>
       <use x="254.492188" xlink:href="#DejaVuSans-30"/>
      </g>
     </g>
    </g>
    <g id="xtick_3">
     <g id="line2d_3">
      <path clip-path="url(#p36e3663fb3)" d="M 381.65625 140.724 
L 381.65625 32.552 
" style="fill:none;stroke:#cccccc;stroke-linecap:round;"/>
     </g>
     <g id="text_3">
      <!-- 100000 -->
      <g style="fill:#262626;" transform="translate(356.46075 160.253938)scale(0.132 -0.132)">
       <defs>
        <path d="M 794 531 
L 1825 531 
L 1825 4091 
L 703 3866 
L 703 4441 
L 1819 4666 
L 2450 4666 
L 2450 531 
L 3481 531 
L 3481 0 
L 794 0 
L 794 531 
z
" id="DejaVuSans-31" transform="scale(0.015625)"/>
       </defs>
       <use xlink:href="#DejaVuSans-31"/>
       <use x="63.623047" xlink:href="#DejaVuSans-30"/>
       <use x="127.246094" xlink:href="#DejaVuSans-30"/>
       <use x="190.869141" xlink:href="#DejaVuSans-30"/>
       <use x="254.492188" xlink:href="#DejaVuSans-30"/>
       <use x="318.115234" xlink:href="#DejaVuSans-30"/>
      </g>
     </g>
    </g>
    <g id="xtick_4">
     <g id="line2d_4">
      <path clip-path="url(#p36e3663fb3)" d="M 458.458375 140.724 
L 458.458375 32.552 
" style="fill:none;stroke:#cccccc;stroke-linecap:round;"/>
     </g>
     <g id="text_4">
      <!-- 150000 -->
      <g style="fill:#262626;" transform="translate(433.262875 160.253938)scale(0.132 -0.132)">
       <use xlink:href="#DejaVuSans-31"/>
       <use x="63.623047" xlink:href="#DejaVuSans-35"/>
       <use x="127.246094" xlink:href="#DejaVuSans-30"/>
       <use x="190.869141" xlink:href="#DejaVuSans-30"/>
       <use x="254.492188" xlink:href="#DejaVuSans-30"/>
       <use x="318.115234" xlink:href="#DejaVuSans-30"/>
      </g>
     </g>
    </g>
    <g id="xtick_5">
     <g id="line2d_5">
      <path clip-path="url(#p36e3663fb3)" d="M 535.2605 140.724 
L 535.2605 32.552 
" style="fill:none;stroke:#cccccc;stroke-linecap:round;"/>
     </g>
     <g id="text_5">
      <!-- 200000 -->
      <g style="fill:#262626;" transform="translate(510.065 160.253938)scale(0.132 -0.132)">
       <defs>
        <path d="M 1228 531 
L 3431 531 
L 3431 0 
L 469 0 
L 469 531 
Q 828 903 1448 1529 
Q 2069 2156 2228 2338 
Q 2531 2678 2651 2914 
Q 2772 3150 2772 3378 
Q 2772 3750 2511 3984 
Q 2250 4219 1831 4219 
Q 1534 4219 1204 4116 
Q 875 4013 500 3803 
L 500 4441 
Q 881 4594 1212 4672 
Q 1544 4750 1819 4750 
Q 2544 4750 2975 4387 
Q 3406 4025 3406 3419 
Q 3406 3131 3298 2873 
Q 3191 2616 2906 2266 
Q 2828 2175 2409 1742 
Q 1991 1309 1228 531 
z
" id="DejaVuSans-32" transform="scale(0.015625)"/>
       </defs>
       <use xlink:href="#DejaVuSans-32"/>
       <use x="63.623047" xlink:href="#DejaVuSans-30"/>
       <use x="127.246094" xlink:href="#DejaVuSans-30"/>
       <use x="190.869141" xlink:href="#DejaVuSans-30"/>
       <use x="254.492188" xlink:href="#DejaVuSans-30"/>
       <use x="318.115234" xlink:href="#DejaVuSans-30"/>
      </g>
     </g>
    </g>
   </g>
   <g id="matplotlib.axis_2">
    <g id="ytick_1">
     <g id="text_6">
      <!-- Before rescoring -->
      <g style="fill:#262626;" transform="translate(109.901563 51.088469)scale(0.132 -0.132)">
       <defs>
        <path d="M 1259 2228 
L 1259 519 
L 2272 519 
Q 2781 519 3026 730 
Q 3272 941 3272 1375 
Q 3272 1813 3026 2020 
Q 2781 2228 2272 2228 
L 1259 2228 
z
M 1259 4147 
L 1259 2741 
L 2194 2741 
Q 2656 2741 2882 2914 
Q 3109 3088 3109 3444 
Q 3109 3797 2882 3972 
Q 2656 4147 2194 4147 
L 1259 4147 
z
M 628 4666 
L 2241 4666 
Q 2963 4666 3353 4366 
Q 3744 4066 3744 3513 
Q 3744 3084 3544 2831 
Q 3344 2578 2956 2516 
Q 3422 2416 3680 2098 
Q 3938 1781 3938 1306 
Q 3938 681 3513 340 
Q 3088 0 2303 0 
L 628 0 
L 628 4666 
z
" id="DejaVuSans-42" transform="scale(0.015625)"/>
        <path d="M 3597 1894 
L 3597 1613 
L 953 1613 
Q 991 1019 1311 708 
Q 1631 397 2203 397 
Q 2534 397 2845 478 
Q 3156 559 3463 722 
L 3463 178 
Q 3153 47 2828 -22 
Q 2503 -91 2169 -91 
Q 1331 -91 842 396 
Q 353 884 353 1716 
Q 353 2575 817 3079 
Q 1281 3584 2069 3584 
Q 2775 3584 3186 3129 
Q 3597 2675 3597 1894 
z
M 3022 2063 
Q 3016 2534 2758 2815 
Q 2500 3097 2075 3097 
Q 1594 3097 1305 2825 
Q 1016 2553 972 2059 
L 3022 2063 
z
" id="DejaVuSans-65" transform="scale(0.015625)"/>
        <path d="M 2375 4863 
L 2375 4384 
L 1825 4384 
Q 1516 4384 1395 4259 
Q 1275 4134 1275 3809 
L 1275 3500 
L 2222 3500 
L 2222 3053 
L 1275 3053 
L 1275 0 
L 697 0 
L 697 3053 
L 147 3053 
L 147 3500 
L 697 3500 
L 697 3744 
Q 697 4328 969 4595 
Q 1241 4863 1831 4863 
L 2375 4863 
z
" id="DejaVuSans-66" transform="scale(0.015625)"/>
        <path d="M 1959 3097 
Q 1497 3097 1228 2736 
Q 959 2375 959 1747 
Q 959 1119 1226 758 
Q 1494 397 1959 397 
Q 2419 397 2687 759 
Q 2956 1122 2956 1747 
Q 2956 2369 2687 2733 
Q 2419 3097 1959 3097 
z
M 1959 3584 
Q 2709 3584 3137 3096 
Q 3566 2609 3566 1747 
Q 3566 888 3137 398 
Q 2709 -91 1959 -91 
Q 1206 -91 779 398 
Q 353 888 353 1747 
Q 353 2609 779 3096 
Q 1206 3584 1959 3584 
z
" id="DejaVuSans-6f" transform="scale(0.015625)"/>
        <path d="M 2631 2963 
Q 2534 3019 2420 3045 
Q 2306 3072 2169 3072 
Q 1681 3072 1420 2755 
Q 1159 2438 1159 1844 
L 1159 0 
L 581 0 
L 581 3500 
L 1159 3500 
L 1159 2956 
Q 1341 3275 1631 3429 
Q 1922 3584 2338 3584 
Q 2397 3584 2469 3576 
Q 2541 3569 2628 3553 
L 2631 2963 
z
" id="DejaVuSans-72" transform="scale(0.015625)"/>
        <path id="DejaVuSans-20" transform="scale(0.015625)"/>
        <path d="M 2834 3397 
L 2834 2853 
Q 2591 2978 2328 3040 
Q 2066 3103 1784 3103 
Q 1356 3103 1142 2972 
Q 928 2841 928 2578 
Q 928 2378 1081 2264 
Q 1234 2150 1697 2047 
L 1894 2003 
Q 2506 1872 2764 1633 
Q 3022 1394 3022 966 
Q 3022 478 2636 193 
Q 2250 -91 1575 -91 
Q 1294 -91 989 -36 
Q 684 19 347 128 
L 347 722 
Q 666 556 975 473 
Q 1284 391 1588 391 
Q 1994 391 2212 530 
Q 2431 669 2431 922 
Q 2431 1156 2273 1281 
Q 2116 1406 1581 1522 
L 1381 1569 
Q 847 1681 609 1914 
Q 372 2147 372 2553 
Q 372 3047 722 3315 
Q 1072 3584 1716 3584 
Q 2034 3584 2315 3537 
Q 2597 3491 2834 3397 
z
" id="DejaVuSans-73" transform="scale(0.015625)"/>
        <path d="M 3122 3366 
L 3122 2828 
Q 2878 2963 2633 3030 
Q 2388 3097 2138 3097 
Q 1578 3097 1268 2742 
Q 959 2388 959 1747 
Q 959 1106 1268 751 
Q 1578 397 2138 397 
Q 2388 397 2633 464 
Q 2878 531 3122 666 
L 3122 134 
Q 2881 22 2623 -34 
Q 2366 -91 2075 -91 
Q 1284 -91 818 406 
Q 353 903 353 1747 
Q 353 2603 823 3093 
Q 1294 3584 2113 3584 
Q 2378 3584 2631 3529 
Q 2884 3475 3122 3366 
z
" id="DejaVuSans-63" transform="scale(0.015625)"/>
        <path d="M 603 3500 
L 1178 3500 
L 1178 0 
L 603 0 
L 603 3500 
z
M 603 4863 
L 1178 4863 
L 1178 4134 
L 603 4134 
L 603 4863 
z
" id="DejaVuSans-69" transform="scale(0.015625)"/>
        <path d="M 3513 2113 
L 3513 0 
L 2938 0 
L 2938 2094 
Q 2938 2591 2744 2837 
Q 2550 3084 2163 3084 
Q 1697 3084 1428 2787 
Q 1159 2491 1159 1978 
L 1159 0 
L 581 0 
L 581 3500 
L 1159 3500 
L 1159 2956 
Q 1366 3272 1645 3428 
Q 1925 3584 2291 3584 
Q 2894 3584 3203 3211 
Q 3513 2838 3513 2113 
z
" id="DejaVuSans-6e" transform="scale(0.015625)"/>
        <path d="M 2906 1791 
Q 2906 2416 2648 2759 
Q 2391 3103 1925 3103 
Q 1463 3103 1205 2759 
Q 947 2416 947 1791 
Q 947 1169 1205 825 
Q 1463 481 1925 481 
Q 2391 481 2648 825 
Q 2906 1169 2906 1791 
z
M 3481 434 
Q 3481 -459 3084 -895 
Q 2688 -1331 1869 -1331 
Q 1566 -1331 1297 -1286 
Q 1028 -1241 775 -1147 
L 775 -588 
Q 1028 -725 1275 -790 
Q 1522 -856 1778 -856 
Q 2344 -856 2625 -561 
Q 2906 -266 2906 331 
L 2906 616 
Q 2728 306 2450 153 
Q 2172 0 1784 0 
Q 1141 0 747 490 
Q 353 981 353 1791 
Q 353 2603 747 3093 
Q 1141 3584 1784 3584 
Q 2172 3584 2450 3431 
Q 2728 3278 2906 2969 
L 2906 3500 
L 3481 3500 
L 3481 434 
z
" id="DejaVuSans-67" transform="scale(0.015625)"/>
       </defs>
       <use xlink:href="#DejaVuSans-42"/>
       <use x="68.603516" xlink:href="#DejaVuSans-65"/>
       <use x="130.126953" xlink:href="#DejaVuSans-66"/>
       <use x="165.332031" xlink:href="#DejaVuSans-6f"/>
       <use x="226.513672" xlink:href="#DejaVuSans-72"/>
       <use x="265.376953" xlink:href="#DejaVuSans-65"/>
       <use x="326.900391" xlink:href="#DejaVuSans-20"/>
       <use x="358.6875" xlink:href="#DejaVuSans-72"/>
       <use x="397.550781" xlink:href="#DejaVuSans-65"/>
       <use x="459.074219" xlink:href="#DejaVuSans-73"/>
       <use x="511.173828" xlink:href="#DejaVuSans-63"/>
       <use x="566.154297" xlink:href="#DejaVuSans-6f"/>
       <use x="627.335938" xlink:href="#DejaVuSans-72"/>
       <use x="668.449219" xlink:href="#DejaVuSans-69"/>
       <use x="696.232422" xlink:href="#DejaVuSans-6e"/>
       <use x="759.611328" xlink:href="#DejaVuSans-67"/>
      </g>
     </g>
    </g>
    <g id="ytick_2">
     <g id="text_7">
      <!-- After rescoring: Search engine -->
      <g style="fill:#262626;" transform="translate(18.161563 78.131469)scale(0.132 -0.132)">
       <defs>
        <path d="M 2188 4044 
L 1331 1722 
L 3047 1722 
L 2188 4044 
z
M 1831 4666 
L 2547 4666 
L 4325 0 
L 3669 0 
L 3244 1197 
L 1141 1197 
L 716 0 
L 50 0 
L 1831 4666 
z
" id="DejaVuSans-41" transform="scale(0.015625)"/>
        <path d="M 1172 4494 
L 1172 3500 
L 2356 3500 
L 2356 3053 
L 1172 3053 
L 1172 1153 
Q 1172 725 1289 603 
Q 1406 481 1766 481 
L 2356 481 
L 2356 0 
L 1766 0 
Q 1100 0 847 248 
Q 594 497 594 1153 
L 594 3053 
L 172 3053 
L 172 3500 
L 594 3500 
L 594 4494 
L 1172 4494 
z
" id="DejaVuSans-74" transform="scale(0.015625)"/>
        <path d="M 750 794 
L 1409 794 
L 1409 0 
L 750 0 
L 750 794 
z
M 750 3309 
L 1409 3309 
L 1409 2516 
L 750 2516 
L 750 3309 
z
" id="DejaVuSans-3a" transform="scale(0.015625)"/>
        <path d="M 3425 4513 
L 3425 3897 
Q 3066 4069 2747 4153 
Q 2428 4238 2131 4238 
Q 1616 4238 1336 4038 
Q 1056 3838 1056 3469 
Q 1056 3159 1242 3001 
Q 1428 2844 1947 2747 
L 2328 2669 
Q 3034 2534 3370 2195 
Q 3706 1856 3706 1288 
Q 3706 609 3251 259 
Q 2797 -91 1919 -91 
Q 1588 -91 1214 -16 
Q 841 59 441 206 
L 441 856 
Q 825 641 1194 531 
Q 1563 422 1919 422 
Q 2459 422 2753 634 
Q 3047 847 3047 1241 
Q 3047 1584 2836 1778 
Q 2625 1972 2144 2069 
L 1759 2144 
Q 1053 2284 737 2584 
Q 422 2884 422 3419 
Q 422 4038 858 4394 
Q 1294 4750 2059 4750 
Q 2388 4750 2728 4690 
Q 3069 4631 3425 4513 
z
" id="DejaVuSans-53" transform="scale(0.015625)"/>
        <path d="M 2194 1759 
Q 1497 1759 1228 1600 
Q 959 1441 959 1056 
Q 959 750 1161 570 
Q 1363 391 1709 391 
Q 2188 391 2477 730 
Q 2766 1069 2766 1631 
L 2766 1759 
L 2194 1759 
z
M 3341 1997 
L 3341 0 
L 2766 0 
L 2766 531 
Q 2569 213 2275 61 
Q 1981 -91 1556 -91 
Q 1019 -91 701 211 
Q 384 513 384 1019 
Q 384 1609 779 1909 
Q 1175 2209 1959 2209 
L 2766 2209 
L 2766 2266 
Q 2766 2663 2505 2880 
Q 2244 3097 1772 3097 
Q 1472 3097 1187 3025 
Q 903 2953 641 2809 
L 641 3341 
Q 956 3463 1253 3523 
Q 1550 3584 1831 3584 
Q 2591 3584 2966 3190 
Q 3341 2797 3341 1997 
z
" id="DejaVuSans-61" transform="scale(0.015625)"/>
        <path d="M 3513 2113 
L 3513 0 
L 2938 0 
L 2938 2094 
Q 2938 2591 2744 2837 
Q 2550 3084 2163 3084 
Q 1697 3084 1428 2787 
Q 1159 2491 1159 1978 
L 1159 0 
L 581 0 
L 581 4863 
L 1159 4863 
L 1159 2956 
Q 1366 3272 1645 3428 
Q 1925 3584 2291 3584 
Q 2894 3584 3203 3211 
Q 3513 2838 3513 2113 
z
" id="DejaVuSans-68" transform="scale(0.015625)"/>
       </defs>
       <use xlink:href="#DejaVuSans-41"/>
       <use x="64.783203" xlink:href="#DejaVuSans-66"/>
       <use x="98.238281" xlink:href="#DejaVuSans-74"/>
       <use x="137.447266" xlink:href="#DejaVuSans-65"/>
       <use x="198.970703" xlink:href="#DejaVuSans-72"/>
       <use x="240.083984" xlink:href="#DejaVuSans-20"/>
       <use x="271.871094" xlink:href="#DejaVuSans-72"/>
       <use x="310.734375" xlink:href="#DejaVuSans-65"/>
       <use x="372.257812" xlink:href="#DejaVuSans-73"/>
       <use x="424.357422" xlink:href="#DejaVuSans-63"/>
       <use x="479.337891" xlink:href="#DejaVuSans-6f"/>
       <use x="540.519531" xlink:href="#DejaVuSans-72"/>
       <use x="581.632812" xlink:href="#DejaVuSans-69"/>
       <use x="609.416016" xlink:href="#DejaVuSans-6e"/>
       <use x="672.794922" xlink:href="#DejaVuSans-67"/>
       <use x="736.271484" xlink:href="#DejaVuSans-3a"/>
       <use x="769.962891" xlink:href="#DejaVuSans-20"/>
       <use x="801.75" xlink:href="#DejaVuSans-53"/>
       <use x="865.226562" xlink:href="#DejaVuSans-65"/>
       <use x="926.75" xlink:href="#DejaVuSans-61"/>
       <use x="988.029297" xlink:href="#DejaVuSans-72"/>
       <use x="1026.892578" xlink:href="#DejaVuSans-63"/>
       <use x="1081.873047" xlink:href="#DejaVuSans-68"/>
       <use x="1145.251953" xlink:href="#DejaVuSans-20"/>
       <use x="1177.039062" xlink:href="#DejaVuSans-65"/>
       <use x="1238.5625" xlink:href="#DejaVuSans-6e"/>
       <use x="1301.941406" xlink:href="#DejaVuSans-67"/>
       <use x="1365.417969" xlink:href="#DejaVuSans-69"/>
       <use x="1393.201172" xlink:href="#DejaVuSans-6e"/>
       <use x="1456.580078" xlink:href="#DejaVuSans-65"/>
      </g>
     </g>
    </g>
    <g id="ytick_3">
     <g id="text_8">
      <!-- After rescoring: MS²Rescore -->
      <g style="fill:#262626;" transform="translate(35.498938 105.174469)scale(0.132 -0.132)">
       <defs>
        <path d="M 628 4666 
L 1569 4666 
L 2759 1491 
L 3956 4666 
L 4897 4666 
L 4897 0 
L 4281 0 
L 4281 4097 
L 3078 897 
L 2444 897 
L 1241 4097 
L 1241 0 
L 628 0 
L 628 4666 
z
" id="DejaVuSans-4d" transform="scale(0.015625)"/>
        <path d="M 838 2444 
L 2163 2444 
L 2163 2088 
L 294 2088 
L 294 2431 
Q 400 2528 597 2703 
Q 1672 3656 1672 3950 
Q 1672 4156 1509 4282 
Q 1347 4409 1081 4409 
Q 919 4409 728 4354 
Q 538 4300 313 4191 
L 313 4575 
Q 553 4663 761 4706 
Q 969 4750 1147 4750 
Q 1600 4750 1872 4544 
Q 2144 4338 2144 4000 
Q 2144 3566 1109 2678 
Q 934 2528 838 2444 
z
" id="DejaVuSans-b2" transform="scale(0.015625)"/>
        <path d="M 2841 2188 
Q 3044 2119 3236 1894 
Q 3428 1669 3622 1275 
L 4263 0 
L 3584 0 
L 2988 1197 
Q 2756 1666 2539 1819 
Q 2322 1972 1947 1972 
L 1259 1972 
L 1259 0 
L 628 0 
L 628 4666 
L 2053 4666 
Q 2853 4666 3247 4331 
Q 3641 3997 3641 3322 
Q 3641 2881 3436 2590 
Q 3231 2300 2841 2188 
z
M 1259 4147 
L 1259 2491 
L 2053 2491 
Q 2509 2491 2742 2702 
Q 2975 2913 2975 3322 
Q 2975 3731 2742 3939 
Q 2509 4147 2053 4147 
L 1259 4147 
z
" id="DejaVuSans-52" transform="scale(0.015625)"/>
       </defs>
       <use xlink:href="#DejaVuSans-41"/>
       <use x="64.783203" xlink:href="#DejaVuSans-66"/>
       <use x="98.238281" xlink:href="#DejaVuSans-74"/>
       <use x="137.447266" xlink:href="#DejaVuSans-65"/>
       <use x="198.970703" xlink:href="#DejaVuSans-72"/>
       <use x="240.083984" xlink:href="#DejaVuSans-20"/>
       <use x="271.871094" xlink:href="#DejaVuSans-72"/>
       <use x="310.734375" xlink:href="#DejaVuSans-65"/>
       <use x="372.257812" xlink:href="#DejaVuSans-73"/>
       <use x="424.357422" xlink:href="#DejaVuSans-63"/>
       <use x="479.337891" xlink:href="#DejaVuSans-6f"/>
       <use x="540.519531" xlink:href="#DejaVuSans-72"/>
       <use x="581.632812" xlink:href="#DejaVuSans-69"/>
       <use x="609.416016" xlink:href="#DejaVuSans-6e"/>
       <use x="672.794922" xlink:href="#DejaVuSans-67"/>
       <use x="736.271484" xlink:href="#DejaVuSans-3a"/>
       <use x="769.962891" xlink:href="#DejaVuSans-20"/>
       <use x="801.75" xlink:href="#DejaVuSans-4d"/>
       <use x="888.029297" xlink:href="#DejaVuSans-53"/>
       <use x="951.505859" xlink:href="#DejaVuSans-b2"/>
       <use x="991.59375" xlink:href="#DejaVuSans-52"/>
       <use x="1056.576172" xlink:href="#DejaVuSans-65"/>
       <use x="1118.099609" xlink:href="#DejaVuSans-73"/>
       <use x="1170.199219" xlink:href="#DejaVuSans-63"/>
       <use x="1225.179688" xlink:href="#DejaVuSans-6f"/>
       <use x="1286.361328" xlink:href="#DejaVuSans-72"/>
       <use x="1325.224609" xlink:href="#DejaVuSans-65"/>
      </g>
     </g>
    </g>
    <g id="ytick_4">
     <g id="text_9">
      <!-- After rescoring: Prosit -->
      <g style="fill:#262626;" transform="translate(76.070375 132.217469)scale(0.132 -0.132)">
       <defs>
        <path d="M 1259 4147 
L 1259 2394 
L 2053 2394 
Q 2494 2394 2734 2622 
Q 2975 2850 2975 3272 
Q 2975 3691 2734 3919 
Q 2494 4147 2053 4147 
L 1259 4147 
z
M 628 4666 
L 2053 4666 
Q 2838 4666 3239 4311 
Q 3641 3956 3641 3272 
Q 3641 2581 3239 2228 
Q 2838 1875 2053 1875 
L 1259 1875 
L 1259 0 
L 628 0 
L 628 4666 
z
" id="DejaVuSans-50" transform="scale(0.015625)"/>
       </defs>
       <use xlink:href="#DejaVuSans-41"/>
       <use x="64.783203" xlink:href="#DejaVuSans-66"/>
       <use x="98.238281" xlink:href="#DejaVuSans-74"/>
       <use x="137.447266" xlink:href="#DejaVuSans-65"/>
       <use x="198.970703" xlink:href="#DejaVuSans-72"/>
       <use x="240.083984" xlink:href="#DejaVuSans-20"/>
       <use x="271.871094" xlink:href="#DejaVuSans-72"/>
       <use x="310.734375" xlink:href="#DejaVuSans-65"/>
       <use x="372.257812" xlink:href="#DejaVuSans-73"/>
       <use x="424.357422" xlink:href="#DejaVuSans-63"/>
       <use x="479.337891" xlink:href="#DejaVuSans-6f"/>
       <use x="540.519531" xlink:href="#DejaVuSans-72"/>
       <use x="581.632812" xlink:href="#DejaVuSans-69"/>
       <use x="609.416016" xlink:href="#DejaVuSans-6e"/>
       <use x="672.794922" xlink:href="#DejaVuSans-67"/>
       <use x="736.271484" xlink:href="#DejaVuSans-3a"/>
       <use x="769.962891" xlink:href="#DejaVuSans-20"/>
       <use x="801.75" xlink:href="#DejaVuSans-50"/>
       <use x="860.302734" xlink:href="#DejaVuSans-72"/>
       <use x="899.166016" xlink:href="#DejaVuSans-6f"/>
       <use x="960.347656" xlink:href="#DejaVuSans-73"/>
       <use x="1012.447266" xlink:href="#DejaVuSans-69"/>
       <use x="1040.230469" xlink:href="#DejaVuSans-74"/>
      </g>
     </g>
    </g>
   </g>
   <g id="patch_3">
    <path clip-path="url(#p36e3663fb3)" d="M 228.052 35.2563 
L 310.643469 35.2563 
L 310.643469 56.8907 
L 228.052 56.8907 
z
" style="fill:#379de2;stroke:#ffffff;stroke-linejoin:miter;"/>
   </g>
   <g id="patch_4">
    <path clip-path="url(#p36e3663fb3)" d="M 228.052 62.2993 
L 445.561762 62.2993 
L 445.561762 83.9337 
L 228.052 83.9337 
z
" style="fill:#379de2;stroke:#ffffff;stroke-linejoin:miter;"/>
   </g>
   <g id="patch_5">
    <path clip-path="url(#p36e3663fb3)" d="M 228.052 89.3423 
L 524.326949 89.3423 
L 524.326949 110.9767 
L 228.052 110.9767 
z
" style="fill:#379de2;stroke:#ffffff;stroke-linejoin:miter;"/>
   </g>
   <g id="patch_6">
    <path clip-path="url(#p36e3663fb3)" d="M 228.052 116.3853 
L 508.272233 116.3853 
L 508.272233 138.0197 
L 228.052 138.0197 
z
" style="fill:#bcdff6;stroke:#ffffff;stroke-linejoin:miter;"/>
   </g>
   <g id="line2d_6">
    <path clip-path="url(#p36e3663fb3)" style="fill:none;stroke:#424242;stroke-linecap:round;stroke-width:2.7;"/>
   </g>
   <g id="line2d_7">
    <path clip-path="url(#p36e3663fb3)" style="fill:none;stroke:#424242;stroke-linecap:round;stroke-width:2.7;"/>
   </g>
   <g id="line2d_8">
    <path clip-path="url(#p36e3663fb3)" style="fill:none;stroke:#424242;stroke-linecap:round;stroke-width:2.7;"/>
   </g>
   <g id="line2d_9">
    <path clip-path="url(#p36e3663fb3)" style="fill:none;stroke:#424242;stroke-linecap:round;stroke-width:2.7;"/>
   </g>
   <g id="patch_7">
    <path d="M 228.052 140.724 
L 228.052 32.552 
" style="fill:none;stroke:#cccccc;stroke-linecap:square;stroke-linejoin:miter;stroke-width:1.25;"/>
   </g>
   <g id="patch_8">
    <path d="M 535.2605 140.724 
L 535.2605 32.552 
" style="fill:none;stroke:#cccccc;stroke-linecap:square;stroke-linejoin:miter;stroke-width:1.25;"/>
   </g>
   <g id="patch_9">
    <path d="M 228.052 140.724 
L 535.2605 140.724 
" style="fill:none;stroke:#cccccc;stroke-linecap:square;stroke-linejoin:miter;stroke-width:1.25;"/>
   </g>
   <g id="patch_10">
    <path d="M 228.052 32.552 
L 535.2605 32.552 
" style="fill:none;stroke:#cccccc;stroke-linecap:square;stroke-linejoin:miter;stroke-width:1.25;"/>
   </g>
   <g id="text_10">
    <!-- A -->
    <g style="fill:#262626;" transform="translate(228.052 26.552)scale(0.144 -0.144)">
     <use xlink:href="#DejaVuSans-41"/>
    </g>
   </g>
  </g>
  <g id="axes_2">
   <g id="patch_11">
    <path d="M 228.052 303.948 
L 535.2605 303.948 
L 535.2605 195.776 
L 228.052 195.776 
z
" style="fill:#ffffff;"/>
   </g>
   <g id="matplotlib.axis_3">
    <g id="xtick_6">
     <g id="line2d_10">
      <path clip-path="url(#pad7e33c790)" d="M 228.052 303.948 
L 228.052 195.776 
" style="fill:none;stroke:#cccccc;stroke-linecap:round;"/>
     </g>
     <g id="text_11">
      <!-- 0 -->
      <g style="fill:#262626;" transform="translate(223.85275 323.477937)scale(0.132 -0.132)">
       <use xlink:href="#DejaVuSans-30"/>
      </g>
     </g>
    </g>
    <g id="xtick_7">
     <g id="line2d_11">
      <path clip-path="url(#pad7e33c790)" d="M 304.854125 303.948 
L 304.854125 195.776 
" style="fill:none;stroke:#cccccc;stroke-linecap:round;"/>
     </g>
     <g id="text_12">
      <!-- 50000 -->
      <g style="fill:#262626;" transform="translate(283.857875 323.477937)scale(0.132 -0.132)">
       <use xlink:href="#DejaVuSans-35"/>
       <use x="63.623047" xlink:href="#DejaVuSans-30"/>
       <use x="127.246094" xlink:href="#DejaVuSans-30"/>
       <use x="190.869141" xlink:href="#DejaVuSans-30"/>
       <use x="254.492188" xlink:href="#DejaVuSans-30"/>
      </g>
     </g>
    </g>
    <g id="xtick_8">
     <g id="line2d_12">
      <path clip-path="url(#pad7e33c790)" d="M 381.65625 303.948 
L 381.65625 195.776 
" style="fill:none;stroke:#cccccc;stroke-linecap:round;"/>
     </g>
     <g id="text_13">
      <!-- 100000 -->
      <g style="fill:#262626;" transform="translate(356.46075 323.477937)scale(0.132 -0.132)">
       <use xlink:href="#DejaVuSans-31"/>
       <use x="63.623047" xlink:href="#DejaVuSans-30"/>
       <use x="127.246094" xlink:href="#DejaVuSans-30"/>
       <use x="190.869141" xlink:href="#DejaVuSans-30"/>
       <use x="254.492188" xlink:href="#DejaVuSans-30"/>
       <use x="318.115234" xlink:href="#DejaVuSans-30"/>
      </g>
     </g>
    </g>
    <g id="xtick_9">
     <g id="line2d_13">
      <path clip-path="url(#pad7e33c790)" d="M 458.458375 303.948 
L 458.458375 195.776 
" style="fill:none;stroke:#cccccc;stroke-linecap:round;"/>
     </g>
     <g id="text_14">
      <!-- 150000 -->
      <g style="fill:#262626;" transform="translate(433.262875 323.477937)scale(0.132 -0.132)">
       <use xlink:href="#DejaVuSans-31"/>
       <use x="63.623047" xlink:href="#DejaVuSans-35"/>
       <use x="127.246094" xlink:href="#DejaVuSans-30"/>
       <use x="190.869141" xlink:href="#DejaVuSans-30"/>
       <use x="254.492188" xlink:href="#DejaVuSans-30"/>
       <use x="318.115234" xlink:href="#DejaVuSans-30"/>
      </g>
     </g>
    </g>
    <g id="xtick_10">
     <g id="line2d_14">
      <path clip-path="url(#pad7e33c790)" d="M 535.2605 303.948 
L 535.2605 195.776 
" style="fill:none;stroke:#cccccc;stroke-linecap:round;"/>
     </g>
     <g id="text_15">
      <!-- 200000 -->
      <g style="fill:#262626;" transform="translate(510.065 323.477937)scale(0.132 -0.132)">
       <use xlink:href="#DejaVuSans-32"/>
       <use x="63.623047" xlink:href="#DejaVuSans-30"/>
       <use x="127.246094" xlink:href="#DejaVuSans-30"/>
       <use x="190.869141" xlink:href="#DejaVuSans-30"/>
       <use x="254.492188" xlink:href="#DejaVuSans-30"/>
       <use x="318.115234" xlink:href="#DejaVuSans-30"/>
      </g>
     </g>
    </g>
    <g id="text_16">
     <!-- unique peptide count -->
     <g style="fill:#262626;" transform="translate(304.680375 341.164875)scale(0.144 -0.144)">
      <defs>
       <path d="M 544 1381 
L 544 3500 
L 1119 3500 
L 1119 1403 
Q 1119 906 1312 657 
Q 1506 409 1894 409 
Q 2359 409 2629 706 
Q 2900 1003 2900 1516 
L 2900 3500 
L 3475 3500 
L 3475 0 
L 2900 0 
L 2900 538 
Q 2691 219 2414 64 
Q 2138 -91 1772 -91 
Q 1169 -91 856 284 
Q 544 659 544 1381 
z
M 1991 3584 
L 1991 3584 
z
" id="DejaVuSans-75" transform="scale(0.015625)"/>
       <path d="M 947 1747 
Q 947 1113 1208 752 
Q 1469 391 1925 391 
Q 2381 391 2643 752 
Q 2906 1113 2906 1747 
Q 2906 2381 2643 2742 
Q 2381 3103 1925 3103 
Q 1469 3103 1208 2742 
Q 947 2381 947 1747 
z
M 2906 525 
Q 2725 213 2448 61 
Q 2172 -91 1784 -91 
Q 1150 -91 751 415 
Q 353 922 353 1747 
Q 353 2572 751 3078 
Q 1150 3584 1784 3584 
Q 2172 3584 2448 3432 
Q 2725 3281 2906 2969 
L 2906 3500 
L 3481 3500 
L 3481 -1331 
L 2906 -1331 
L 2906 525 
z
" id="DejaVuSans-71" transform="scale(0.015625)"/>
       <path d="M 1159 525 
L 1159 -1331 
L 581 -1331 
L 581 3500 
L 1159 3500 
L 1159 2969 
Q 1341 3281 1617 3432 
Q 1894 3584 2278 3584 
Q 2916 3584 3314 3078 
Q 3713 2572 3713 1747 
Q 3713 922 3314 415 
Q 2916 -91 2278 -91 
Q 1894 -91 1617 61 
Q 1341 213 1159 525 
z
M 3116 1747 
Q 3116 2381 2855 2742 
Q 2594 3103 2138 3103 
Q 1681 3103 1420 2742 
Q 1159 2381 1159 1747 
Q 1159 1113 1420 752 
Q 1681 391 2138 391 
Q 2594 391 2855 752 
Q 3116 1113 3116 1747 
z
" id="DejaVuSans-70" transform="scale(0.015625)"/>
       <path d="M 2906 2969 
L 2906 4863 
L 3481 4863 
L 3481 0 
L 2906 0 
L 2906 525 
Q 2725 213 2448 61 
Q 2172 -91 1784 -91 
Q 1150 -91 751 415 
Q 353 922 353 1747 
Q 353 2572 751 3078 
Q 1150 3584 1784 3584 
Q 2172 3584 2448 3432 
Q 2725 3281 2906 2969 
z
M 947 1747 
Q 947 1113 1208 752 
Q 1469 391 1925 391 
Q 2381 391 2643 752 
Q 2906 1113 2906 1747 
Q 2906 2381 2643 2742 
Q 2381 3103 1925 3103 
Q 1469 3103 1208 2742 
Q 947 2381 947 1747 
z
" id="DejaVuSans-64" transform="scale(0.015625)"/>
      </defs>
      <use xlink:href="#DejaVuSans-75"/>
      <use x="63.378906" xlink:href="#DejaVuSans-6e"/>
      <use x="126.757812" xlink:href="#DejaVuSans-69"/>
      <use x="154.541016" xlink:href="#DejaVuSans-71"/>
      <use x="218.017578" xlink:href="#DejaVuSans-75"/>
      <use x="281.396484" xlink:href="#DejaVuSans-65"/>
      <use x="342.919922" xlink:href="#DejaVuSans-20"/>
      <use x="374.707031" xlink:href="#DejaVuSans-70"/>
      <use x="438.183594" xlink:href="#DejaVuSans-65"/>
      <use x="499.707031" xlink:href="#DejaVuSans-70"/>
      <use x="563.183594" xlink:href="#DejaVuSans-74"/>
      <use x="602.392578" xlink:href="#DejaVuSans-69"/>
      <use x="630.175781" xlink:href="#DejaVuSans-64"/>
      <use x="693.652344" xlink:href="#DejaVuSans-65"/>
      <use x="755.175781" xlink:href="#DejaVuSans-20"/>
      <use x="786.962891" xlink:href="#DejaVuSans-63"/>
      <use x="841.943359" xlink:href="#DejaVuSans-6f"/>
      <use x="903.125" xlink:href="#DejaVuSans-75"/>
      <use x="966.503906" xlink:href="#DejaVuSans-6e"/>
      <use x="1029.882812" xlink:href="#DejaVuSans-74"/>
     </g>
    </g>
   </g>
   <g id="matplotlib.axis_4">
    <g id="ytick_5">
     <g id="text_17">
      <!-- Before rescoring -->
      <g style="fill:#262626;" transform="translate(109.901563 214.312469)scale(0.132 -0.132)">
       <use xlink:href="#DejaVuSans-42"/>
       <use x="68.603516" xlink:href="#DejaVuSans-65"/>
       <use x="130.126953" xlink:href="#DejaVuSans-66"/>
       <use x="165.332031" xlink:href="#DejaVuSans-6f"/>
       <use x="226.513672" xlink:href="#DejaVuSans-72"/>
       <use x="265.376953" xlink:href="#DejaVuSans-65"/>
       <use x="326.900391" xlink:href="#DejaVuSans-20"/>
       <use x="358.6875" xlink:href="#DejaVuSans-72"/>
       <use x="397.550781" xlink:href="#DejaVuSans-65"/>
       <use x="459.074219" xlink:href="#DejaVuSans-73"/>
       <use x="511.173828" xlink:href="#DejaVuSans-63"/>
       <use x="566.154297" xlink:href="#DejaVuSans-6f"/>
       <use x="627.335938" xlink:href="#DejaVuSans-72"/>
       <use x="668.449219" xlink:href="#DejaVuSans-69"/>
       <use x="696.232422" xlink:href="#DejaVuSans-6e"/>
       <use x="759.611328" xlink:href="#DejaVuSans-67"/>
      </g>
     </g>
    </g>
    <g id="ytick_6">
     <g id="text_18">
      <!-- After rescoring: Search engine -->
      <g style="fill:#262626;" transform="translate(18.161563 241.355469)scale(0.132 -0.132)">
       <use xlink:href="#DejaVuSans-41"/>
       <use x="64.783203" xlink:href="#DejaVuSans-66"/>
       <use x="98.238281" xlink:href="#DejaVuSans-74"/>
       <use x="137.447266" xlink:href="#DejaVuSans-65"/>
       <use x="198.970703" xlink:href="#DejaVuSans-72"/>
       <use x="240.083984" xlink:href="#DejaVuSans-20"/>
       <use x="271.871094" xlink:href="#DejaVuSans-72"/>
       <use x="310.734375" xlink:href="#DejaVuSans-65"/>
       <use x="372.257812" xlink:href="#DejaVuSans-73"/>
       <use x="424.357422" xlink:href="#DejaVuSans-63"/>
       <use x="479.337891" xlink:href="#DejaVuSans-6f"/>
       <use x="540.519531" xlink:href="#DejaVuSans-72"/>
       <use x="581.632812" xlink:href="#DejaVuSans-69"/>
       <use x="609.416016" xlink:href="#DejaVuSans-6e"/>
       <use x="672.794922" xlink:href="#DejaVuSans-67"/>
       <use x="736.271484" xlink:href="#DejaVuSans-3a"/>
       <use x="769.962891" xlink:href="#DejaVuSans-20"/>
       <use x="801.75" xlink:href="#DejaVuSans-53"/>
       <use x="865.226562" xlink:href="#DejaVuSans-65"/>
       <use x="926.75" xlink:href="#DejaVuSans-61"/>
       <use x="988.029297" xlink:href="#DejaVuSans-72"/>
       <use x="1026.892578" xlink:href="#DejaVuSans-63"/>
       <use x="1081.873047" xlink:href="#DejaVuSans-68"/>
       <use x="1145.251953" xlink:href="#DejaVuSans-20"/>
       <use x="1177.039062" xlink:href="#DejaVuSans-65"/>
       <use x="1238.5625" xlink:href="#DejaVuSans-6e"/>
       <use x="1301.941406" xlink:href="#DejaVuSans-67"/>
       <use x="1365.417969" xlink:href="#DejaVuSans-69"/>
       <use x="1393.201172" xlink:href="#DejaVuSans-6e"/>
       <use x="1456.580078" xlink:href="#DejaVuSans-65"/>
      </g>
     </g>
    </g>
    <g id="ytick_7">
     <g id="text_19">
      <!-- After rescoring: MS²Rescore -->
      <g style="fill:#262626;" transform="translate(35.498938 268.398469)scale(0.132 -0.132)">
       <use xlink:href="#DejaVuSans-41"/>
       <use x="64.783203" xlink:href="#DejaVuSans-66"/>
       <use x="98.238281" xlink:href="#DejaVuSans-74"/>
       <use x="137.447266" xlink:href="#DejaVuSans-65"/>
       <use x="198.970703" xlink:href="#DejaVuSans-72"/>
       <use x="240.083984" xlink:href="#DejaVuSans-20"/>
       <use x="271.871094" xlink:href="#DejaVuSans-72"/>
       <use x="310.734375" xlink:href="#DejaVuSans-65"/>
       <use x="372.257812" xlink:href="#DejaVuSans-73"/>
       <use x="424.357422" xlink:href="#DejaVuSans-63"/>
       <use x="479.337891" xlink:href="#DejaVuSans-6f"/>
       <use x="540.519531" xlink:href="#DejaVuSans-72"/>
       <use x="581.632812" xlink:href="#DejaVuSans-69"/>
       <use x="609.416016" xlink:href="#DejaVuSans-6e"/>
       <use x="672.794922" xlink:href="#DejaVuSans-67"/>
       <use x="736.271484" xlink:href="#DejaVuSans-3a"/>
       <use x="769.962891" xlink:href="#DejaVuSans-20"/>
       <use x="801.75" xlink:href="#DejaVuSans-4d"/>
       <use x="888.029297" xlink:href="#DejaVuSans-53"/>
       <use x="951.505859" xlink:href="#DejaVuSans-b2"/>
       <use x="991.59375" xlink:href="#DejaVuSans-52"/>
       <use x="1056.576172" xlink:href="#DejaVuSans-65"/>
       <use x="1118.099609" xlink:href="#DejaVuSans-73"/>
       <use x="1170.199219" xlink:href="#DejaVuSans-63"/>
       <use x="1225.179688" xlink:href="#DejaVuSans-6f"/>
       <use x="1286.361328" xlink:href="#DejaVuSans-72"/>
       <use x="1325.224609" xlink:href="#DejaVuSans-65"/>
      </g>
     </g>
    </g>
    <g id="ytick_8">
     <g id="text_20">
      <!-- After rescoring: Prosit -->
      <g style="fill:#262626;" transform="translate(76.070375 295.441469)scale(0.132 -0.132)">
       <use xlink:href="#DejaVuSans-41"/>
       <use x="64.783203" xlink:href="#DejaVuSans-66"/>
       <use x="98.238281" xlink:href="#DejaVuSans-74"/>
       <use x="137.447266" xlink:href="#DejaVuSans-65"/>
       <use x="198.970703" xlink:href="#DejaVuSans-72"/>
       <use x="240.083984" xlink:href="#DejaVuSans-20"/>
       <use x="271.871094" xlink:href="#DejaVuSans-72"/>
       <use x="310.734375" xlink:href="#DejaVuSans-65"/>
       <use x="372.257812" xlink:href="#DejaVuSans-73"/>
       <use x="424.357422" xlink:href="#DejaVuSans-63"/>
       <use x="479.337891" xlink:href="#DejaVuSans-6f"/>
       <use x="540.519531" xlink:href="#DejaVuSans-72"/>
       <use x="581.632812" xlink:href="#DejaVuSans-69"/>
       <use x="609.416016" xlink:href="#DejaVuSans-6e"/>
       <use x="672.794922" xlink:href="#DejaVuSans-67"/>
       <use x="736.271484" xlink:href="#DejaVuSans-3a"/>
       <use x="769.962891" xlink:href="#DejaVuSans-20"/>
       <use x="801.75" xlink:href="#DejaVuSans-50"/>
       <use x="860.302734" xlink:href="#DejaVuSans-72"/>
       <use x="899.166016" xlink:href="#DejaVuSans-6f"/>
       <use x="960.347656" xlink:href="#DejaVuSans-73"/>
       <use x="1012.447266" xlink:href="#DejaVuSans-69"/>
       <use x="1040.230469" xlink:href="#DejaVuSans-74"/>
      </g>
     </g>
    </g>
   </g>
   <g id="patch_12">
    <path clip-path="url(#pad7e33c790)" d="M 228.052 198.4803 
L 232.139409 198.4803 
L 232.139409 220.1147 
L 228.052 220.1147 
z
" style="fill:#379de2;stroke:#ffffff;stroke-linejoin:miter;"/>
   </g>
   <g id="patch_13">
    <path clip-path="url(#pad7e33c790)" d="M 228.052 225.5233 
L 311.402274 225.5233 
L 311.402274 247.1577 
L 228.052 247.1577 
z
" style="fill:#379de2;stroke:#ffffff;stroke-linejoin:miter;"/>
   </g>
   <g id="patch_14">
    <path clip-path="url(#pad7e33c790)" d="M 228.052 252.5663 
L 476.440825 252.5663 
L 476.440825 274.2007 
L 228.052 274.2007 
z
" style="fill:#379de2;stroke:#ffffff;stroke-linejoin:miter;"/>
   </g>
   <g id="patch_15">
    <path clip-path="url(#pad7e33c790)" d="M 228.052 279.6093 
L 429.318113 279.6093 
L 429.318113 301.2437 
L 228.052 301.2437 
z
" style="fill:#bcdff6;stroke:#ffffff;stroke-linejoin:miter;"/>
   </g>
   <g id="line2d_15">
    <path clip-path="url(#pad7e33c790)" style="fill:none;stroke:#424242;stroke-linecap:round;stroke-width:2.7;"/>
   </g>
   <g id="line2d_16">
    <path clip-path="url(#pad7e33c790)" style="fill:none;stroke:#424242;stroke-linecap:round;stroke-width:2.7;"/>
   </g>
   <g id="line2d_17">
    <path clip-path="url(#pad7e33c790)" style="fill:none;stroke:#424242;stroke-linecap:round;stroke-width:2.7;"/>
   </g>
   <g id="line2d_18">
    <path clip-path="url(#pad7e33c790)" style="fill:none;stroke:#424242;stroke-linecap:round;stroke-width:2.7;"/>
   </g>
   <g id="patch_16">
    <path d="M 228.052 303.948 
L 228.052 195.776 
" style="fill:none;stroke:#cccccc;stroke-linecap:square;stroke-linejoin:miter;stroke-width:1.25;"/>
   </g>
   <g id="patch_17">
    <path d="M 535.2605 303.948 
L 535.2605 195.776 
" style="fill:none;stroke:#cccccc;stroke-linecap:square;stroke-linejoin:miter;stroke-width:1.25;"/>
   </g>
   <g id="patch_18">
    <path d="M 228.052 303.948 
L 535.2605 303.948 
" style="fill:none;stroke:#cccccc;stroke-linecap:square;stroke-linejoin:miter;stroke-width:1.25;"/>
   </g>
   <g id="patch_19">
    <path d="M 228.052 195.776 
L 535.2605 195.776 
" style="fill:none;stroke:#cccccc;stroke-linecap:square;stroke-linejoin:miter;stroke-width:1.25;"/>
   </g>
   <g id="text_21">
    <!-- B -->
    <g style="fill:#262626;" transform="translate(228.052 189.776)scale(0.144 -0.144)">
     <use xlink:href="#DejaVuSans-42"/>
    </g>
   </g>
  </g>
 </g>
 <defs>
  <clipPath id="p36e3663fb3">
   <rect height="108.172" width="307.2085" x="228.052" y="32.552"/>
  </clipPath>
  <clipPath id="pad7e33c790">
   <rect height="108.172" width="307.2085" x="228.052" y="195.776"/>
  </clipPath>
 </defs>
</svg>
