<?xml version="1.0" encoding="utf-8" standalone="no"?>
<!DOCTYPE svg PUBLIC "-//W3C//DTD SVG 1.1//EN"
  "http://www.w3.org/Graphics/SVG/1.1/DTD/svg11.dtd">
<svg height="576pt" version="1.1" viewBox="0 0 720 576" width="720pt" xmlns="http://www.w3.org/2000/svg" xmlns:xlink="http://www.w3.org/1999/xlink">
 <metadata>
  <rdf:RDF xmlns:cc="http://creativecommons.org/ns#" xmlns:dc="http://purl.org/dc/elements/1.1/" xmlns:rdf="http://www.w3.org/1999/02/22-rdf-syntax-ns#">
   <cc:Work>
    <dc:type rdf:resource="http://purl.org/dc/dcmitype/StillImage"/>
    <dc:date>2021-10-30T15:03:33.103558</dc:date>
    <dc:format>image/svg+xml</dc:format>
    <dc:creator>
     <cc:Agent>
      <dc:title>Matplotlib v3.4.3, https://matplotlib.org/</dc:title>
     </cc:Agent>
    </dc:creator>
   </cc:Work>
  </rdf:RDF>
 </metadata>
 <defs>
  <style type="text/css">*{stroke-linecap:butt;stroke-linejoin:round;}</style>
 </defs>
 <g id="figure_1">
  <g id="patch_1">
   <path d="M 0 576 
L 720 576 
L 720 0 
L 0 0 
z
" style="fill:#ffffff;"/>
  </g>
  <g id="axes_1">
   <g id="patch_2">
    <path d="M 64.052 519.948 
L 687.528125 519.948 
L 687.528125 15.552 
L 64.052 15.552 
z
" style="fill:#ffffff;"/>
   </g>
   <g id="matplotlib.axis_1">
    <g id="xtick_1">
     <g id="text_1">
      <!-- shotgun proteomics -->
      <g style="fill:#262626;" transform="translate(76.277328 539.477937)scale(0.132 -0.132)">
       <defs>
        <path d="M 2834 3397 
L 2834 2853 
Q 2591 2978 2328 3040 
Q 2066 3103 1784 3103 
Q 1356 3103 1142 2972 
Q 928 2841 928 2578 
Q 928 2378 1081 2264 
Q 1234 2150 1697 2047 
L 1894 2003 
Q 2506 1872 2764 1633 
Q 3022 1394 3022 966 
Q 3022 478 2636 193 
Q 2250 -91 1575 -91 
Q 1294 -91 989 -36 
Q 684 19 347 128 
L 347 722 
Q 666 556 975 473 
Q 1284 391 1588 391 
Q 1994 391 2212 530 
Q 2431 669 2431 922 
Q 2431 1156 2273 1281 
Q 2116 1406 1581 1522 
L 1381 1569 
Q 847 1681 609 1914 
Q 372 2147 372 2553 
Q 372 3047 722 3315 
Q 1072 3584 1716 3584 
Q 2034 3584 2315 3537 
Q 2597 3491 2834 3397 
z
" id="DejaVuSans-73" transform="scale(0.015625)"/>
        <path d="M 3513 2113 
L 3513 0 
L 2938 0 
L 2938 2094 
Q 2938 2591 2744 2837 
Q 2550 3084 2163 3084 
Q 1697 3084 1428 2787 
Q 1159 2491 1159 1978 
L 1159 0 
L 581 0 
L 581 4863 
L 1159 4863 
L 1159 2956 
Q 1366 3272 1645 3428 
Q 1925 3584 2291 3584 
Q 2894 3584 3203 3211 
Q 3513 2838 3513 2113 
z
" id="DejaVuSans-68" transform="scale(0.015625)"/>
        <path d="M 1959 3097 
Q 1497 3097 1228 2736 
Q 959 2375 959 1747 
Q 959 1119 1226 758 
Q 1494 397 1959 397 
Q 2419 397 2687 759 
Q 2956 1122 2956 1747 
Q 2956 2369 2687 2733 
Q 2419 3097 1959 3097 
z
M 1959 3584 
Q 2709 3584 3137 3096 
Q 3566 2609 3566 1747 
Q 3566 888 3137 398 
Q 2709 -91 1959 -91 
Q 1206 -91 779 398 
Q 353 888 353 1747 
Q 353 2609 779 3096 
Q 1206 3584 1959 3584 
z
" id="DejaVuSans-6f" transform="scale(0.015625)"/>
        <path d="M 1172 4494 
L 1172 3500 
L 2356 3500 
L 2356 3053 
L 1172 3053 
L 1172 1153 
Q 1172 725 1289 603 
Q 1406 481 1766 481 
L 2356 481 
L 2356 0 
L 1766 0 
Q 1100 0 847 248 
Q 594 497 594 1153 
L 594 3053 
L 172 3053 
L 172 3500 
L 594 3500 
L 594 4494 
L 1172 4494 
z
" id="DejaVuSans-74" transform="scale(0.015625)"/>
        <path d="M 2906 1791 
Q 2906 2416 2648 2759 
Q 2391 3103 1925 3103 
Q 1463 3103 1205 2759 
Q 947 2416 947 1791 
Q 947 1169 1205 825 
Q 1463 481 1925 481 
Q 2391 481 2648 825 
Q 2906 1169 2906 1791 
z
M 3481 434 
Q 3481 -459 3084 -895 
Q 2688 -1331 1869 -1331 
Q 1566 -1331 1297 -1286 
Q 1028 -1241 775 -1147 
L 775 -588 
Q 1028 -725 1275 -790 
Q 1522 -856 1778 -856 
Q 2344 -856 2625 -561 
Q 2906 -266 2906 331 
L 2906 616 
Q 2728 306 2450 153 
Q 2172 0 1784 0 
Q 1141 0 747 490 
Q 353 981 353 1791 
Q 353 2603 747 3093 
Q 1141 3584 1784 3584 
Q 2172 3584 2450 3431 
Q 2728 3278 2906 2969 
L 2906 3500 
L 3481 3500 
L 3481 434 
z
" id="DejaVuSans-67" transform="scale(0.015625)"/>
        <path d="M 544 1381 
L 544 3500 
L 1119 3500 
L 1119 1403 
Q 1119 906 1312 657 
Q 1506 409 1894 409 
Q 2359 409 2629 706 
Q 2900 1003 2900 1516 
L 2900 3500 
L 3475 3500 
L 3475 0 
L 2900 0 
L 2900 538 
Q 2691 219 2414 64 
Q 2138 -91 1772 -91 
Q 1169 -91 856 284 
Q 544 659 544 1381 
z
M 1991 3584 
L 1991 3584 
z
" id="DejaVuSans-75" transform="scale(0.015625)"/>
        <path d="M 3513 2113 
L 3513 0 
L 2938 0 
L 2938 2094 
Q 2938 2591 2744 2837 
Q 2550 3084 2163 3084 
Q 1697 3084 1428 2787 
Q 1159 2491 1159 1978 
L 1159 0 
L 581 0 
L 581 3500 
L 1159 3500 
L 1159 2956 
Q 1366 3272 1645 3428 
Q 1925 3584 2291 3584 
Q 2894 3584 3203 3211 
Q 3513 2838 3513 2113 
z
" id="DejaVuSans-6e" transform="scale(0.015625)"/>
        <path id="DejaVuSans-20" transform="scale(0.015625)"/>
        <path d="M 1159 525 
L 1159 -1331 
L 581 -1331 
L 581 3500 
L 1159 3500 
L 1159 2969 
Q 1341 3281 1617 3432 
Q 1894 3584 2278 3584 
Q 2916 3584 3314 3078 
Q 3713 2572 3713 1747 
Q 3713 922 3314 415 
Q 2916 -91 2278 -91 
Q 1894 -91 1617 61 
Q 1341 213 1159 525 
z
M 3116 1747 
Q 3116 2381 2855 2742 
Q 2594 3103 2138 3103 
Q 1681 3103 1420 2742 
Q 1159 2381 1159 1747 
Q 1159 1113 1420 752 
Q 1681 391 2138 391 
Q 2594 391 2855 752 
Q 3116 1113 3116 1747 
z
" id="DejaVuSans-70" transform="scale(0.015625)"/>
        <path d="M 2631 2963 
Q 2534 3019 2420 3045 
Q 2306 3072 2169 3072 
Q 1681 3072 1420 2755 
Q 1159 2438 1159 1844 
L 1159 0 
L 581 0 
L 581 3500 
L 1159 3500 
L 1159 2956 
Q 1341 3275 1631 3429 
Q 1922 3584 2338 3584 
Q 2397 3584 2469 3576 
Q 2541 3569 2628 3553 
L 2631 2963 
z
" id="DejaVuSans-72" transform="scale(0.015625)"/>
        <path d="M 3597 1894 
L 3597 1613 
L 953 1613 
Q 991 1019 1311 708 
Q 1631 397 2203 397 
Q 2534 397 2845 478 
Q 3156 559 3463 722 
L 3463 178 
Q 3153 47 2828 -22 
Q 2503 -91 2169 -91 
Q 1331 -91 842 396 
Q 353 884 353 1716 
Q 353 2575 817 3079 
Q 1281 3584 2069 3584 
Q 2775 3584 3186 3129 
Q 3597 2675 3597 1894 
z
M 3022 2063 
Q 3016 2534 2758 2815 
Q 2500 3097 2075 3097 
Q 1594 3097 1305 2825 
Q 1016 2553 972 2059 
L 3022 2063 
z
" id="DejaVuSans-65" transform="scale(0.015625)"/>
        <path d="M 3328 2828 
Q 3544 3216 3844 3400 
Q 4144 3584 4550 3584 
Q 5097 3584 5394 3201 
Q 5691 2819 5691 2113 
L 5691 0 
L 5113 0 
L 5113 2094 
Q 5113 2597 4934 2840 
Q 4756 3084 4391 3084 
Q 3944 3084 3684 2787 
Q 3425 2491 3425 1978 
L 3425 0 
L 2847 0 
L 2847 2094 
Q 2847 2600 2669 2842 
Q 2491 3084 2119 3084 
Q 1678 3084 1418 2786 
Q 1159 2488 1159 1978 
L 1159 0 
L 581 0 
L 581 3500 
L 1159 3500 
L 1159 2956 
Q 1356 3278 1631 3431 
Q 1906 3584 2284 3584 
Q 2666 3584 2933 3390 
Q 3200 3197 3328 2828 
z
" id="DejaVuSans-6d" transform="scale(0.015625)"/>
        <path d="M 603 3500 
L 1178 3500 
L 1178 0 
L 603 0 
L 603 3500 
z
M 603 4863 
L 1178 4863 
L 1178 4134 
L 603 4134 
L 603 4863 
z
" id="DejaVuSans-69" transform="scale(0.015625)"/>
        <path d="M 3122 3366 
L 3122 2828 
Q 2878 2963 2633 3030 
Q 2388 3097 2138 3097 
Q 1578 3097 1268 2742 
Q 959 2388 959 1747 
Q 959 1106 1268 751 
Q 1578 397 2138 397 
Q 2388 397 2633 464 
Q 2878 531 3122 666 
L 3122 134 
Q 2881 22 2623 -34 
Q 2366 -91 2075 -91 
Q 1284 -91 818 406 
Q 353 903 353 1747 
Q 353 2603 823 3093 
Q 1294 3584 2113 3584 
Q 2378 3584 2631 3529 
Q 2884 3475 3122 3366 
z
" id="DejaVuSans-63" transform="scale(0.015625)"/>
       </defs>
       <use xlink:href="#DejaVuSans-73"/>
       <use x="52.099609" xlink:href="#DejaVuSans-68"/>
       <use x="115.478516" xlink:href="#DejaVuSans-6f"/>
       <use x="176.660156" xlink:href="#DejaVuSans-74"/>
       <use x="215.869141" xlink:href="#DejaVuSans-67"/>
       <use x="279.345703" xlink:href="#DejaVuSans-75"/>
       <use x="342.724609" xlink:href="#DejaVuSans-6e"/>
       <use x="406.103516" xlink:href="#DejaVuSans-20"/>
       <use x="437.890625" xlink:href="#DejaVuSans-70"/>
       <use x="501.367188" xlink:href="#DejaVuSans-72"/>
       <use x="540.230469" xlink:href="#DejaVuSans-6f"/>
       <use x="601.412109" xlink:href="#DejaVuSans-74"/>
       <use x="640.621094" xlink:href="#DejaVuSans-65"/>
       <use x="702.144531" xlink:href="#DejaVuSans-6f"/>
       <use x="763.326172" xlink:href="#DejaVuSans-6d"/>
       <use x="860.738281" xlink:href="#DejaVuSans-69"/>
       <use x="888.521484" xlink:href="#DejaVuSans-63"/>
       <use x="943.501953" xlink:href="#DejaVuSans-73"/>
      </g>
     </g>
    </g>
    <g id="xtick_2">
     <g id="text_2">
      <!-- HLA-I -->
      <g style="fill:#262626;" transform="translate(280.371734 539.477937)scale(0.132 -0.132)">
       <defs>
        <path d="M 628 4666 
L 1259 4666 
L 1259 2753 
L 3553 2753 
L 3553 4666 
L 4184 4666 
L 4184 0 
L 3553 0 
L 3553 2222 
L 1259 2222 
L 1259 0 
L 628 0 
L 628 4666 
z
" id="DejaVuSans-48" transform="scale(0.015625)"/>
        <path d="M 628 4666 
L 1259 4666 
L 1259 531 
L 3531 531 
L 3531 0 
L 628 0 
L 628 4666 
z
" id="DejaVuSans-4c" transform="scale(0.015625)"/>
        <path d="M 2188 4044 
L 1331 1722 
L 3047 1722 
L 2188 4044 
z
M 1831 4666 
L 2547 4666 
L 4325 0 
L 3669 0 
L 3244 1197 
L 1141 1197 
L 716 0 
L 50 0 
L 1831 4666 
z
" id="DejaVuSans-41" transform="scale(0.015625)"/>
        <path d="M 313 2009 
L 1997 2009 
L 1997 1497 
L 313 1497 
L 313 2009 
z
" id="DejaVuSans-2d" transform="scale(0.015625)"/>
        <path d="M 628 4666 
L 1259 4666 
L 1259 0 
L 628 0 
L 628 4666 
z
" id="DejaVuSans-49" transform="scale(0.015625)"/>
       </defs>
       <use xlink:href="#DejaVuSans-48"/>
       <use x="75.195312" xlink:href="#DejaVuSans-4c"/>
       <use x="133.158203" xlink:href="#DejaVuSans-41"/>
       <use x="199.316406" xlink:href="#DejaVuSans-2d"/>
       <use x="235.400391" xlink:href="#DejaVuSans-49"/>
      </g>
     </g>
    </g>
    <g id="xtick_3">
     <g id="text_3">
      <!-- HLA-II -->
      <g style="fill:#262626;" transform="translate(434.293766 539.477937)scale(0.132 -0.132)">
       <use xlink:href="#DejaVuSans-48"/>
       <use x="75.195312" xlink:href="#DejaVuSans-4c"/>
       <use x="133.158203" xlink:href="#DejaVuSans-41"/>
       <use x="199.316406" xlink:href="#DejaVuSans-2d"/>
       <use x="235.400391" xlink:href="#DejaVuSans-49"/>
       <use x="264.892578" xlink:href="#DejaVuSans-49"/>
      </g>
     </g>
    </g>
    <g id="xtick_4">
     <g id="text_4">
      <!-- chymotrypsin-digested -->
      <g style="fill:#262626;" transform="translate(533.624516 539.477937)scale(0.132 -0.132)">
       <defs>
        <path d="M 2059 -325 
Q 1816 -950 1584 -1140 
Q 1353 -1331 966 -1331 
L 506 -1331 
L 506 -850 
L 844 -850 
Q 1081 -850 1212 -737 
Q 1344 -625 1503 -206 
L 1606 56 
L 191 3500 
L 800 3500 
L 1894 763 
L 2988 3500 
L 3597 3500 
L 2059 -325 
z
" id="DejaVuSans-79" transform="scale(0.015625)"/>
        <path d="M 2906 2969 
L 2906 4863 
L 3481 4863 
L 3481 0 
L 2906 0 
L 2906 525 
Q 2725 213 2448 61 
Q 2172 -91 1784 -91 
Q 1150 -91 751 415 
Q 353 922 353 1747 
Q 353 2572 751 3078 
Q 1150 3584 1784 3584 
Q 2172 3584 2448 3432 
Q 2725 3281 2906 2969 
z
M 947 1747 
Q 947 1113 1208 752 
Q 1469 391 1925 391 
Q 2381 391 2643 752 
Q 2906 1113 2906 1747 
Q 2906 2381 2643 2742 
Q 2381 3103 1925 3103 
Q 1469 3103 1208 2742 
Q 947 2381 947 1747 
z
" id="DejaVuSans-64" transform="scale(0.015625)"/>
       </defs>
       <use xlink:href="#DejaVuSans-63"/>
       <use x="54.980469" xlink:href="#DejaVuSans-68"/>
       <use x="118.359375" xlink:href="#DejaVuSans-79"/>
       <use x="177.539062" xlink:href="#DejaVuSans-6d"/>
       <use x="274.951172" xlink:href="#DejaVuSans-6f"/>
       <use x="336.132812" xlink:href="#DejaVuSans-74"/>
       <use x="375.341797" xlink:href="#DejaVuSans-72"/>
       <use x="416.455078" xlink:href="#DejaVuSans-79"/>
       <use x="475.634766" xlink:href="#DejaVuSans-70"/>
       <use x="539.111328" xlink:href="#DejaVuSans-73"/>
       <use x="591.210938" xlink:href="#DejaVuSans-69"/>
       <use x="618.994141" xlink:href="#DejaVuSans-6e"/>
       <use x="682.373047" xlink:href="#DejaVuSans-2d"/>
       <use x="718.457031" xlink:href="#DejaVuSans-64"/>
       <use x="781.933594" xlink:href="#DejaVuSans-69"/>
       <use x="809.716797" xlink:href="#DejaVuSans-67"/>
       <use x="873.193359" xlink:href="#DejaVuSans-65"/>
       <use x="934.716797" xlink:href="#DejaVuSans-73"/>
       <use x="986.816406" xlink:href="#DejaVuSans-74"/>
       <use x="1026.025391" xlink:href="#DejaVuSans-65"/>
       <use x="1087.548828" xlink:href="#DejaVuSans-64"/>
      </g>
     </g>
    </g>
    <g id="text_5">
     <!-- evaluation data set -->
     <g style="fill:#262626;" transform="translate(306.121062 557.164875)scale(0.144 -0.144)">
      <defs>
       <path d="M 191 3500 
L 800 3500 
L 1894 563 
L 2988 3500 
L 3597 3500 
L 2284 0 
L 1503 0 
L 191 3500 
z
" id="DejaVuSans-76" transform="scale(0.015625)"/>
       <path d="M 2194 1759 
Q 1497 1759 1228 1600 
Q 959 1441 959 1056 
Q 959 750 1161 570 
Q 1363 391 1709 391 
Q 2188 391 2477 730 
Q 2766 1069 2766 1631 
L 2766 1759 
L 2194 1759 
z
M 3341 1997 
L 3341 0 
L 2766 0 
L 2766 531 
Q 2569 213 2275 61 
Q 1981 -91 1556 -91 
Q 1019 -91 701 211 
Q 384 513 384 1019 
Q 384 1609 779 1909 
Q 1175 2209 1959 2209 
L 2766 2209 
L 2766 2266 
Q 2766 2663 2505 2880 
Q 2244 3097 1772 3097 
Q 1472 3097 1187 3025 
Q 903 2953 641 2809 
L 641 3341 
Q 956 3463 1253 3523 
Q 1550 3584 1831 3584 
Q 2591 3584 2966 3190 
Q 3341 2797 3341 1997 
z
" id="DejaVuSans-61" transform="scale(0.015625)"/>
       <path d="M 603 4863 
L 1178 4863 
L 1178 0 
L 603 0 
L 603 4863 
z
" id="DejaVuSans-6c" transform="scale(0.015625)"/>
      </defs>
      <use xlink:href="#DejaVuSans-65"/>
      <use x="61.523438" xlink:href="#DejaVuSans-76"/>
      <use x="120.703125" xlink:href="#DejaVuSans-61"/>
      <use x="181.982422" xlink:href="#DejaVuSans-6c"/>
      <use x="209.765625" xlink:href="#DejaVuSans-75"/>
      <use x="273.144531" xlink:href="#DejaVuSans-61"/>
      <use x="334.423828" xlink:href="#DejaVuSans-74"/>
      <use x="373.632812" xlink:href="#DejaVuSans-69"/>
      <use x="401.416016" xlink:href="#DejaVuSans-6f"/>
      <use x="462.597656" xlink:href="#DejaVuSans-6e"/>
      <use x="525.976562" xlink:href="#DejaVuSans-20"/>
      <use x="557.763672" xlink:href="#DejaVuSans-64"/>
      <use x="621.240234" xlink:href="#DejaVuSans-61"/>
      <use x="682.519531" xlink:href="#DejaVuSans-74"/>
      <use x="721.728516" xlink:href="#DejaVuSans-61"/>
      <use x="783.007812" xlink:href="#DejaVuSans-20"/>
      <use x="814.794922" xlink:href="#DejaVuSans-73"/>
      <use x="866.894531" xlink:href="#DejaVuSans-65"/>
      <use x="928.417969" xlink:href="#DejaVuSans-74"/>
     </g>
    </g>
   </g>
   <g id="matplotlib.axis_2">
    <g id="ytick_1">
     <g id="line2d_1">
      <path clip-path="url(#pd40c2480ce)" d="M 64.052 519.948 
L 687.528125 519.948 
" style="fill:none;stroke:#cccccc;stroke-linecap:round;"/>
     </g>
     <g id="text_6">
      <!-- 0.0 -->
      <g style="fill:#262626;" transform="translate(33.559875 524.962969)scale(0.132 -0.132)">
       <defs>
        <path d="M 2034 4250 
Q 1547 4250 1301 3770 
Q 1056 3291 1056 2328 
Q 1056 1369 1301 889 
Q 1547 409 2034 409 
Q 2525 409 2770 889 
Q 3016 1369 3016 2328 
Q 3016 3291 2770 3770 
Q 2525 4250 2034 4250 
z
M 2034 4750 
Q 2819 4750 3233 4129 
Q 3647 3509 3647 2328 
Q 3647 1150 3233 529 
Q 2819 -91 2034 -91 
Q 1250 -91 836 529 
Q 422 1150 422 2328 
Q 422 3509 836 4129 
Q 1250 4750 2034 4750 
z
" id="DejaVuSans-30" transform="scale(0.015625)"/>
        <path d="M 684 794 
L 1344 794 
L 1344 0 
L 684 0 
L 684 794 
z
" id="DejaVuSans-2e" transform="scale(0.015625)"/>
       </defs>
       <use xlink:href="#DejaVuSans-30"/>
       <use x="63.623047" xlink:href="#DejaVuSans-2e"/>
       <use x="95.410156" xlink:href="#DejaVuSans-30"/>
      </g>
     </g>
    </g>
    <g id="ytick_2">
     <g id="line2d_2">
      <path clip-path="url(#pd40c2480ce)" d="M 64.052 419.0688 
L 687.528125 419.0688 
" style="fill:none;stroke:#cccccc;stroke-linecap:round;"/>
     </g>
     <g id="text_7">
      <!-- 0.2 -->
      <g style="fill:#262626;" transform="translate(33.559875 424.083769)scale(0.132 -0.132)">
       <defs>
        <path d="M 1228 531 
L 3431 531 
L 3431 0 
L 469 0 
L 469 531 
Q 828 903 1448 1529 
Q 2069 2156 2228 2338 
Q 2531 2678 2651 2914 
Q 2772 3150 2772 3378 
Q 2772 3750 2511 3984 
Q 2250 4219 1831 4219 
Q 1534 4219 1204 4116 
Q 875 4013 500 3803 
L 500 4441 
Q 881 4594 1212 4672 
Q 1544 4750 1819 4750 
Q 2544 4750 2975 4387 
Q 3406 4025 3406 3419 
Q 3406 3131 3298 2873 
Q 3191 2616 2906 2266 
Q 2828 2175 2409 1742 
Q 1991 1309 1228 531 
z
" id="DejaVuSans-32" transform="scale(0.015625)"/>
       </defs>
       <use xlink:href="#DejaVuSans-30"/>
       <use x="63.623047" xlink:href="#DejaVuSans-2e"/>
       <use x="95.410156" xlink:href="#DejaVuSans-32"/>
      </g>
     </g>
    </g>
    <g id="ytick_3">
     <g id="line2d_3">
      <path clip-path="url(#pd40c2480ce)" d="M 64.052 318.1896 
L 687.528125 318.1896 
" style="fill:none;stroke:#cccccc;stroke-linecap:round;"/>
     </g>
     <g id="text_8">
      <!-- 0.4 -->
      <g style="fill:#262626;" transform="translate(33.559875 323.204569)scale(0.132 -0.132)">
       <defs>
        <path d="M 2419 4116 
L 825 1625 
L 2419 1625 
L 2419 4116 
z
M 2253 4666 
L 3047 4666 
L 3047 1625 
L 3713 1625 
L 3713 1100 
L 3047 1100 
L 3047 0 
L 2419 0 
L 2419 1100 
L 313 1100 
L 313 1709 
L 2253 4666 
z
" id="DejaVuSans-34" transform="scale(0.015625)"/>
       </defs>
       <use xlink:href="#DejaVuSans-30"/>
       <use x="63.623047" xlink:href="#DejaVuSans-2e"/>
       <use x="95.410156" xlink:href="#DejaVuSans-34"/>
      </g>
     </g>
    </g>
    <g id="ytick_4">
     <g id="line2d_4">
      <path clip-path="url(#pd40c2480ce)" d="M 64.052 217.3104 
L 687.528125 217.3104 
" style="fill:none;stroke:#cccccc;stroke-linecap:round;"/>
     </g>
     <g id="text_9">
      <!-- 0.6 -->
      <g style="fill:#262626;" transform="translate(33.559875 222.325369)scale(0.132 -0.132)">
       <defs>
        <path d="M 2113 2584 
Q 1688 2584 1439 2293 
Q 1191 2003 1191 1497 
Q 1191 994 1439 701 
Q 1688 409 2113 409 
Q 2538 409 2786 701 
Q 3034 994 3034 1497 
Q 3034 2003 2786 2293 
Q 2538 2584 2113 2584 
z
M 3366 4563 
L 3366 3988 
Q 3128 4100 2886 4159 
Q 2644 4219 2406 4219 
Q 1781 4219 1451 3797 
Q 1122 3375 1075 2522 
Q 1259 2794 1537 2939 
Q 1816 3084 2150 3084 
Q 2853 3084 3261 2657 
Q 3669 2231 3669 1497 
Q 3669 778 3244 343 
Q 2819 -91 2113 -91 
Q 1303 -91 875 529 
Q 447 1150 447 2328 
Q 447 3434 972 4092 
Q 1497 4750 2381 4750 
Q 2619 4750 2861 4703 
Q 3103 4656 3366 4563 
z
" id="DejaVuSans-36" transform="scale(0.015625)"/>
       </defs>
       <use xlink:href="#DejaVuSans-30"/>
       <use x="63.623047" xlink:href="#DejaVuSans-2e"/>
       <use x="95.410156" xlink:href="#DejaVuSans-36"/>
      </g>
     </g>
    </g>
    <g id="ytick_5">
     <g id="line2d_5">
      <path clip-path="url(#pd40c2480ce)" d="M 64.052 116.4312 
L 687.528125 116.4312 
" style="fill:none;stroke:#cccccc;stroke-linecap:round;"/>
     </g>
     <g id="text_10">
      <!-- 0.8 -->
      <g style="fill:#262626;" transform="translate(33.559875 121.446169)scale(0.132 -0.132)">
       <defs>
        <path d="M 2034 2216 
Q 1584 2216 1326 1975 
Q 1069 1734 1069 1313 
Q 1069 891 1326 650 
Q 1584 409 2034 409 
Q 2484 409 2743 651 
Q 3003 894 3003 1313 
Q 3003 1734 2745 1975 
Q 2488 2216 2034 2216 
z
M 1403 2484 
Q 997 2584 770 2862 
Q 544 3141 544 3541 
Q 544 4100 942 4425 
Q 1341 4750 2034 4750 
Q 2731 4750 3128 4425 
Q 3525 4100 3525 3541 
Q 3525 3141 3298 2862 
Q 3072 2584 2669 2484 
Q 3125 2378 3379 2068 
Q 3634 1759 3634 1313 
Q 3634 634 3220 271 
Q 2806 -91 2034 -91 
Q 1263 -91 848 271 
Q 434 634 434 1313 
Q 434 1759 690 2068 
Q 947 2378 1403 2484 
z
M 1172 3481 
Q 1172 3119 1398 2916 
Q 1625 2713 2034 2713 
Q 2441 2713 2670 2916 
Q 2900 3119 2900 3481 
Q 2900 3844 2670 4047 
Q 2441 4250 2034 4250 
Q 1625 4250 1398 4047 
Q 1172 3844 1172 3481 
z
" id="DejaVuSans-38" transform="scale(0.015625)"/>
       </defs>
       <use xlink:href="#DejaVuSans-30"/>
       <use x="63.623047" xlink:href="#DejaVuSans-2e"/>
       <use x="95.410156" xlink:href="#DejaVuSans-38"/>
      </g>
     </g>
    </g>
    <g id="ytick_6">
     <g id="line2d_6">
      <path clip-path="url(#pd40c2480ce)" d="M 64.052 15.552 
L 687.528125 15.552 
" style="fill:none;stroke:#cccccc;stroke-linecap:round;"/>
     </g>
     <g id="text_11">
      <!-- 1.0 -->
      <g style="fill:#262626;" transform="translate(33.559875 20.566969)scale(0.132 -0.132)">
       <defs>
        <path d="M 794 531 
L 1825 531 
L 1825 4091 
L 703 3866 
L 703 4441 
L 1819 4666 
L 2450 4666 
L 2450 531 
L 3481 531 
L 3481 0 
L 794 0 
L 794 531 
z
" id="DejaVuSans-31" transform="scale(0.015625)"/>
       </defs>
       <use xlink:href="#DejaVuSans-31"/>
       <use x="63.623047" xlink:href="#DejaVuSans-2e"/>
       <use x="95.410156" xlink:href="#DejaVuSans-30"/>
      </g>
     </g>
    </g>
    <g id="text_12">
     <!-- pearson correlation -->
     <g style="fill:#262626;" transform="translate(26.565125 337.761)rotate(-90)scale(0.144 -0.144)">
      <use xlink:href="#DejaVuSans-70"/>
      <use x="63.476562" xlink:href="#DejaVuSans-65"/>
      <use x="125" xlink:href="#DejaVuSans-61"/>
      <use x="186.279297" xlink:href="#DejaVuSans-72"/>
      <use x="227.392578" xlink:href="#DejaVuSans-73"/>
      <use x="279.492188" xlink:href="#DejaVuSans-6f"/>
      <use x="340.673828" xlink:href="#DejaVuSans-6e"/>
      <use x="404.052734" xlink:href="#DejaVuSans-20"/>
      <use x="435.839844" xlink:href="#DejaVuSans-63"/>
      <use x="490.820312" xlink:href="#DejaVuSans-6f"/>
      <use x="552.001953" xlink:href="#DejaVuSans-72"/>
      <use x="591.365234" xlink:href="#DejaVuSans-72"/>
      <use x="630.228516" xlink:href="#DejaVuSans-65"/>
      <use x="691.751953" xlink:href="#DejaVuSans-6c"/>
      <use x="719.535156" xlink:href="#DejaVuSans-61"/>
      <use x="780.814453" xlink:href="#DejaVuSans-74"/>
      <use x="820.023438" xlink:href="#DejaVuSans-69"/>
      <use x="847.806641" xlink:href="#DejaVuSans-6f"/>
      <use x="908.988281" xlink:href="#DejaVuSans-6e"/>
     </g>
    </g>
   </g>
   <g id="patch_3">
    <path clip-path="url(#pd40c2480ce)" d="M 79.950641 107.040178 
L 110.500971 107.040178 
L 110.500971 42.254446 
L 79.950641 42.254446 
L 79.950641 107.040178 
z
" style="fill:#e4be42;stroke:#505050;stroke-linejoin:miter;stroke-width:1.5;"/>
   </g>
   <g id="patch_4">
    <path clip-path="url(#pd40c2480ce)" d="M 111.124447 83.544396 
L 141.674778 83.544396 
L 141.674778 33.82048 
L 111.124447 33.82048 
L 111.124447 83.544396 
z
" style="fill:#54a8e5;stroke:#505050;stroke-linejoin:miter;stroke-width:1.5;"/>
   </g>
   <g id="patch_5">
    <path clip-path="url(#pd40c2480ce)" d="M 142.298254 124.503511 
L 172.848584 124.503511 
L 172.848584 47.785784 
L 142.298254 47.785784 
L 142.298254 124.503511 
z
" style="fill:#e2717e;stroke:#505050;stroke-linejoin:miter;stroke-width:1.5;"/>
   </g>
   <g id="patch_6">
    <path clip-path="url(#pd40c2480ce)" d="M 173.47206 81.499769 
L 204.02239 81.499769 
L 204.02239 33.335848 
L 173.47206 33.335848 
L 173.47206 81.499769 
z
" style="fill:#40d13b;stroke:#505050;stroke-linejoin:miter;stroke-width:1.5;"/>
   </g>
   <g id="patch_7">
    <path clip-path="url(#pd40c2480ce)" d="M 235.819672 161.035328 
L 266.370003 161.035328 
L 266.370003 57.318424 
L 235.819672 57.318424 
L 235.819672 161.035328 
z
" style="fill:#e4be42;stroke:#505050;stroke-linejoin:miter;stroke-width:1.5;"/>
   </g>
   <g id="patch_8">
    <path clip-path="url(#pd40c2480ce)" d="M 266.993479 55.0514 
L 297.543809 55.0514 
L 297.543809 23.876809 
L 266.993479 23.876809 
L 266.993479 55.0514 
z
" style="fill:#54a8e5;stroke:#505050;stroke-linejoin:miter;stroke-width:1.5;"/>
   </g>
   <g id="patch_9">
    <path clip-path="url(#pd40c2480ce)" d="M 298.167285 68.55707 
L 328.717615 68.55707 
L 328.717615 26.273954 
L 298.167285 26.273954 
L 298.167285 68.55707 
z
" style="fill:#e2717e;stroke:#505050;stroke-linejoin:miter;stroke-width:1.5;"/>
   </g>
   <g id="patch_10">
    <path clip-path="url(#pd40c2480ce)" d="M 329.341091 59.89979 
L 359.891421 59.89979 
L 359.891421 25.044804 
L 329.341091 25.044804 
L 329.341091 59.89979 
z
" style="fill:#40d13b;stroke:#505050;stroke-linejoin:miter;stroke-width:1.5;"/>
   </g>
   <g id="patch_11">
    <path clip-path="url(#pd40c2480ce)" d="M 391.688704 183.629401 
L 422.239034 183.629401 
L 422.239034 64.179328 
L 391.688704 64.179328 
L 391.688704 183.629401 
z
" style="fill:#e4be42;stroke:#505050;stroke-linejoin:miter;stroke-width:1.5;"/>
   </g>
   <g id="patch_12">
    <path clip-path="url(#pd40c2480ce)" d="M 422.86251 76.499478 
L 453.41284 76.499478 
L 453.41284 29.044095 
L 422.86251 29.044095 
L 422.86251 76.499478 
z
" style="fill:#54a8e5;stroke:#505050;stroke-linejoin:miter;stroke-width:1.5;"/>
   </g>
   <g id="patch_13">
    <path clip-path="url(#pd40c2480ce)" d="M 454.036316 87.375156 
L 484.586646 87.375156 
L 484.586646 32.173334 
L 454.036316 32.173334 
L 454.036316 87.375156 
z
" style="fill:#e2717e;stroke:#505050;stroke-linejoin:miter;stroke-width:1.5;"/>
   </g>
   <g id="patch_14">
    <path clip-path="url(#pd40c2480ce)" d="M 485.210122 82.43388 
L 515.760453 82.43388 
L 515.760453 30.930474 
L 485.210122 30.930474 
L 485.210122 82.43388 
z
" style="fill:#40d13b;stroke:#505050;stroke-linejoin:miter;stroke-width:1.5;"/>
   </g>
   <g id="patch_15">
    <path clip-path="url(#pd40c2480ce)" d="M 547.557735 230.196457 
L 578.108065 230.196457 
L 578.108065 83.080158 
L 547.557735 83.080158 
L 547.557735 230.196457 
z
" style="fill:#e4be42;stroke:#505050;stroke-linejoin:miter;stroke-width:1.5;"/>
   </g>
   <g id="patch_16">
    <path clip-path="url(#pd40c2480ce)" d="M 578.731541 165.273272 
L 609.281871 165.273272 
L 609.281871 51.98874 
L 578.731541 51.98874 
L 578.731541 165.273272 
z
" style="fill:#54a8e5;stroke:#505050;stroke-linejoin:miter;stroke-width:1.5;"/>
   </g>
   <g id="patch_17">
    <path clip-path="url(#pd40c2480ce)" d="M 609.905347 172.494194 
L 640.455678 172.494194 
L 640.455678 53.647207 
L 609.905347 53.647207 
L 609.905347 172.494194 
z
" style="fill:#e2717e;stroke:#505050;stroke-linejoin:miter;stroke-width:1.5;"/>
   </g>
   <g id="patch_18">
    <path clip-path="url(#pd40c2480ce)" d="M 641.079154 105.115143 
L 671.629484 105.115143 
L 671.629484 39.125093 
L 641.079154 39.125093 
L 641.079154 105.115143 
z
" style="fill:#40d13b;stroke:#505050;stroke-linejoin:miter;stroke-width:1.5;"/>
   </g>
   <g id="patch_19">
    <path clip-path="url(#pd40c2480ce)" d="M 141.986516 519.948 
L 141.986516 519.948 
L 141.986516 519.948 
L 141.986516 519.948 
z
" style="fill:#e4be42;stroke:#505050;stroke-linejoin:miter;stroke-width:0.75;"/>
   </g>
   <g id="patch_20">
    <path clip-path="url(#pd40c2480ce)" d="M 141.986516 519.948 
L 141.986516 519.948 
L 141.986516 519.948 
L 141.986516 519.948 
z
" style="fill:#54a8e5;stroke:#505050;stroke-linejoin:miter;stroke-width:0.75;"/>
   </g>
   <g id="patch_21">
    <path clip-path="url(#pd40c2480ce)" d="M 141.986516 519.948 
L 141.986516 519.948 
L 141.986516 519.948 
L 141.986516 519.948 
z
" style="fill:#e2717e;stroke:#505050;stroke-linejoin:miter;stroke-width:0.75;"/>
   </g>
   <g id="patch_22">
    <path clip-path="url(#pd40c2480ce)" d="M 141.986516 519.948 
L 141.986516 519.948 
L 141.986516 519.948 
L 141.986516 519.948 
z
" style="fill:#40d13b;stroke:#505050;stroke-linejoin:miter;stroke-width:0.75;"/>
   </g>
   <g id="line2d_7">
    <path clip-path="url(#pd40c2480ce)" d="M 95.225806 107.040178 
L 95.225806 204.216572 
" style="fill:none;stroke:#505050;stroke-linecap:round;stroke-width:1.5;"/>
   </g>
   <g id="line2d_8">
    <path clip-path="url(#pd40c2480ce)" d="M 95.225806 42.254446 
L 95.225806 15.788499 
" style="fill:none;stroke:#505050;stroke-linecap:round;stroke-width:1.5;"/>
   </g>
   <g id="line2d_9">
    <path clip-path="url(#pd40c2480ce)" d="M 87.588224 204.216572 
L 102.863389 204.216572 
" style="fill:none;stroke:#505050;stroke-linecap:round;stroke-width:1.5;"/>
   </g>
   <g id="line2d_10">
    <path clip-path="url(#pd40c2480ce)" d="M 87.588224 15.788499 
L 102.863389 15.788499 
" style="fill:none;stroke:#505050;stroke-linecap:round;stroke-width:1.5;"/>
   </g>
   <g id="line2d_11">
    <path clip-path="url(#pd40c2480ce)" d="M 126.399612 83.544396 
L 126.399612 158.12122 
" style="fill:none;stroke:#505050;stroke-linecap:round;stroke-width:1.5;"/>
   </g>
   <g id="line2d_12">
    <path clip-path="url(#pd40c2480ce)" d="M 126.399612 33.82048 
L 126.399612 15.612457 
" style="fill:none;stroke:#505050;stroke-linecap:round;stroke-width:1.5;"/>
   </g>
   <g id="line2d_13">
    <path clip-path="url(#pd40c2480ce)" d="M 118.76203 158.12122 
L 134.037195 158.12122 
" style="fill:none;stroke:#505050;stroke-linecap:round;stroke-width:1.5;"/>
   </g>
   <g id="line2d_14">
    <path clip-path="url(#pd40c2480ce)" d="M 118.76203 15.612457 
L 134.037195 15.612457 
" style="fill:none;stroke:#505050;stroke-linecap:round;stroke-width:1.5;"/>
   </g>
   <g id="line2d_15">
    <path clip-path="url(#pd40c2480ce)" d="M 157.573419 124.503511 
L 157.573419 239.558512 
" style="fill:none;stroke:#505050;stroke-linecap:round;stroke-width:1.5;"/>
   </g>
   <g id="line2d_16">
    <path clip-path="url(#pd40c2480ce)" d="M 157.573419 47.785784 
L 157.573419 15.688431 
" style="fill:none;stroke:#505050;stroke-linecap:round;stroke-width:1.5;"/>
   </g>
   <g id="line2d_17">
    <path clip-path="url(#pd40c2480ce)" d="M 149.935836 239.558512 
L 165.211001 239.558512 
" style="fill:none;stroke:#505050;stroke-linecap:round;stroke-width:1.5;"/>
   </g>
   <g id="line2d_18">
    <path clip-path="url(#pd40c2480ce)" d="M 149.935836 15.688431 
L 165.211001 15.688431 
" style="fill:none;stroke:#505050;stroke-linecap:round;stroke-width:1.5;"/>
   </g>
   <g id="line2d_19">
    <path clip-path="url(#pd40c2480ce)" d="M 188.747225 81.499769 
L 188.747225 153.739624 
" style="fill:none;stroke:#505050;stroke-linecap:round;stroke-width:1.5;"/>
   </g>
   <g id="line2d_20">
    <path clip-path="url(#pd40c2480ce)" d="M 188.747225 33.335848 
L 188.747225 15.596604 
" style="fill:none;stroke:#505050;stroke-linecap:round;stroke-width:1.5;"/>
   </g>
   <g id="line2d_21">
    <path clip-path="url(#pd40c2480ce)" d="M 181.109642 153.739624 
L 196.384808 153.739624 
" style="fill:none;stroke:#505050;stroke-linecap:round;stroke-width:1.5;"/>
   </g>
   <g id="line2d_22">
    <path clip-path="url(#pd40c2480ce)" d="M 181.109642 15.596604 
L 196.384808 15.596604 
" style="fill:none;stroke:#505050;stroke-linecap:round;stroke-width:1.5;"/>
   </g>
   <g id="line2d_23">
    <path clip-path="url(#pd40c2480ce)" d="M 251.094837 161.035328 
L 251.094837 316.582178 
" style="fill:none;stroke:#505050;stroke-linecap:round;stroke-width:1.5;"/>
   </g>
   <g id="line2d_24">
    <path clip-path="url(#pd40c2480ce)" d="M 251.094837 57.318424 
L 251.094837 15.827739 
" style="fill:none;stroke:#505050;stroke-linecap:round;stroke-width:1.5;"/>
   </g>
   <g id="line2d_25">
    <path clip-path="url(#pd40c2480ce)" d="M 243.457255 316.582178 
L 258.73242 316.582178 
" style="fill:none;stroke:#505050;stroke-linecap:round;stroke-width:1.5;"/>
   </g>
   <g id="line2d_26">
    <path clip-path="url(#pd40c2480ce)" d="M 243.457255 15.827739 
L 258.73242 15.827739 
" style="fill:none;stroke:#505050;stroke-linecap:round;stroke-width:1.5;"/>
   </g>
   <g id="line2d_27">
    <path clip-path="url(#pd40c2480ce)" d="M 282.268644 55.0514 
L 282.268644 101.811921 
" style="fill:none;stroke:#505050;stroke-linecap:round;stroke-width:1.5;"/>
   </g>
   <g id="line2d_28">
    <path clip-path="url(#pd40c2480ce)" d="M 282.268644 23.876809 
L 282.268644 15.586872 
" style="fill:none;stroke:#505050;stroke-linecap:round;stroke-width:1.5;"/>
   </g>
   <g id="line2d_29">
    <path clip-path="url(#pd40c2480ce)" d="M 274.631061 101.811921 
L 289.906226 101.811921 
" style="fill:none;stroke:#505050;stroke-linecap:round;stroke-width:1.5;"/>
   </g>
   <g id="line2d_30">
    <path clip-path="url(#pd40c2480ce)" d="M 274.631061 15.586872 
L 289.906226 15.586872 
" style="fill:none;stroke:#505050;stroke-linecap:round;stroke-width:1.5;"/>
   </g>
   <g id="line2d_31">
    <path clip-path="url(#pd40c2480ce)" d="M 313.44245 68.55707 
L 313.44245 131.977854 
" style="fill:none;stroke:#505050;stroke-linecap:round;stroke-width:1.5;"/>
   </g>
   <g id="line2d_32">
    <path clip-path="url(#pd40c2480ce)" d="M 313.44245 26.273954 
L 313.44245 15.575654 
" style="fill:none;stroke:#505050;stroke-linecap:round;stroke-width:1.5;"/>
   </g>
   <g id="line2d_33">
    <path clip-path="url(#pd40c2480ce)" d="M 305.804867 131.977854 
L 321.080033 131.977854 
" style="fill:none;stroke:#505050;stroke-linecap:round;stroke-width:1.5;"/>
   </g>
   <g id="line2d_34">
    <path clip-path="url(#pd40c2480ce)" d="M 305.804867 15.575654 
L 321.080033 15.575654 
" style="fill:none;stroke:#505050;stroke-linecap:round;stroke-width:1.5;"/>
   </g>
   <g id="line2d_35">
    <path clip-path="url(#pd40c2480ce)" d="M 344.616256 59.89979 
L 344.616256 112.165859 
" style="fill:none;stroke:#505050;stroke-linecap:round;stroke-width:1.5;"/>
   </g>
   <g id="line2d_36">
    <path clip-path="url(#pd40c2480ce)" d="M 344.616256 25.044804 
L 344.616256 15.586449 
" style="fill:none;stroke:#505050;stroke-linecap:round;stroke-width:1.5;"/>
   </g>
   <g id="line2d_37">
    <path clip-path="url(#pd40c2480ce)" d="M 336.978674 112.165859 
L 352.253839 112.165859 
" style="fill:none;stroke:#505050;stroke-linecap:round;stroke-width:1.5;"/>
   </g>
   <g id="line2d_38">
    <path clip-path="url(#pd40c2480ce)" d="M 336.978674 15.586449 
L 352.253839 15.586449 
" style="fill:none;stroke:#505050;stroke-linecap:round;stroke-width:1.5;"/>
   </g>
   <g id="line2d_39">
    <path clip-path="url(#pd40c2480ce)" d="M 406.963869 183.629401 
L 406.963869 362.797845 
" style="fill:none;stroke:#505050;stroke-linecap:round;stroke-width:1.5;"/>
   </g>
   <g id="line2d_40">
    <path clip-path="url(#pd40c2480ce)" d="M 406.963869 64.179328 
L 406.963869 15.963544 
" style="fill:none;stroke:#505050;stroke-linecap:round;stroke-width:1.5;"/>
   </g>
   <g id="line2d_41">
    <path clip-path="url(#pd40c2480ce)" d="M 399.326286 362.797845 
L 414.601451 362.797845 
" style="fill:none;stroke:#505050;stroke-linecap:round;stroke-width:1.5;"/>
   </g>
   <g id="line2d_42">
    <path clip-path="url(#pd40c2480ce)" d="M 399.326286 15.963544 
L 414.601451 15.963544 
" style="fill:none;stroke:#505050;stroke-linecap:round;stroke-width:1.5;"/>
   </g>
   <g id="line2d_43">
    <path clip-path="url(#pd40c2480ce)" d="M 438.137675 76.499478 
L 438.137675 147.615773 
" style="fill:none;stroke:#505050;stroke-linecap:round;stroke-width:1.5;"/>
   </g>
   <g id="line2d_44">
    <path clip-path="url(#pd40c2480ce)" d="M 438.137675 29.044095 
L 438.137675 15.663475 
" style="fill:none;stroke:#505050;stroke-linecap:round;stroke-width:1.5;"/>
   </g>
   <g id="line2d_45">
    <path clip-path="url(#pd40c2480ce)" d="M 430.500092 147.615773 
L 445.775258 147.615773 
" style="fill:none;stroke:#505050;stroke-linecap:round;stroke-width:1.5;"/>
   </g>
   <g id="line2d_46">
    <path clip-path="url(#pd40c2480ce)" d="M 430.500092 15.663475 
L 445.775258 15.663475 
" style="fill:none;stroke:#505050;stroke-linecap:round;stroke-width:1.5;"/>
   </g>
   <g id="line2d_47">
    <path clip-path="url(#pd40c2480ce)" d="M 469.311481 87.375156 
L 469.311481 170.168777 
" style="fill:none;stroke:#505050;stroke-linecap:round;stroke-width:1.5;"/>
   </g>
   <g id="line2d_48">
    <path clip-path="url(#pd40c2480ce)" d="M 469.311481 32.173334 
L 469.311481 15.612736 
" style="fill:none;stroke:#505050;stroke-linecap:round;stroke-width:1.5;"/>
   </g>
   <g id="line2d_49">
    <path clip-path="url(#pd40c2480ce)" d="M 461.673899 170.168777 
L 476.949064 170.168777 
" style="fill:none;stroke:#505050;stroke-linecap:round;stroke-width:1.5;"/>
   </g>
   <g id="line2d_50">
    <path clip-path="url(#pd40c2480ce)" d="M 461.673899 15.612736 
L 476.949064 15.612736 
" style="fill:none;stroke:#505050;stroke-linecap:round;stroke-width:1.5;"/>
   </g>
   <g id="line2d_51">
    <path clip-path="url(#pd40c2480ce)" d="M 500.485287 82.43388 
L 500.485287 159.682872 
" style="fill:none;stroke:#505050;stroke-linecap:round;stroke-width:1.5;"/>
   </g>
   <g id="line2d_52">
    <path clip-path="url(#pd40c2480ce)" d="M 500.485287 30.930474 
L 500.485287 15.698466 
" style="fill:none;stroke:#505050;stroke-linecap:round;stroke-width:1.5;"/>
   </g>
   <g id="line2d_53">
    <path clip-path="url(#pd40c2480ce)" d="M 492.847705 159.682872 
L 508.12287 159.682872 
" style="fill:none;stroke:#505050;stroke-linecap:round;stroke-width:1.5;"/>
   </g>
   <g id="line2d_54">
    <path clip-path="url(#pd40c2480ce)" d="M 492.847705 15.698466 
L 508.12287 15.698466 
" style="fill:none;stroke:#505050;stroke-linecap:round;stroke-width:1.5;"/>
   </g>
   <g id="line2d_55">
    <path clip-path="url(#pd40c2480ce)" d="M 562.8329 230.196457 
L 562.8329 450.844426 
" style="fill:none;stroke:#505050;stroke-linecap:round;stroke-width:1.5;"/>
   </g>
   <g id="line2d_56">
    <path clip-path="url(#pd40c2480ce)" d="M 562.8329 83.080158 
L 562.8329 17.253078 
" style="fill:none;stroke:#505050;stroke-linecap:round;stroke-width:1.5;"/>
   </g>
   <g id="line2d_57">
    <path clip-path="url(#pd40c2480ce)" d="M 555.195317 450.844426 
L 570.470483 450.844426 
" style="fill:none;stroke:#505050;stroke-linecap:round;stroke-width:1.5;"/>
   </g>
   <g id="line2d_58">
    <path clip-path="url(#pd40c2480ce)" d="M 555.195317 17.253078 
L 570.470483 17.253078 
" style="fill:none;stroke:#505050;stroke-linecap:round;stroke-width:1.5;"/>
   </g>
   <g id="line2d_59">
    <path clip-path="url(#pd40c2480ce)" d="M 594.006706 165.273272 
L 594.006706 335.153849 
" style="fill:none;stroke:#505050;stroke-linecap:round;stroke-width:1.5;"/>
   </g>
   <g id="line2d_60">
    <path clip-path="url(#pd40c2480ce)" d="M 594.006706 51.98874 
L 594.006706 15.694959 
" style="fill:none;stroke:#505050;stroke-linecap:round;stroke-width:1.5;"/>
   </g>
   <g id="line2d_61">
    <path clip-path="url(#pd40c2480ce)" d="M 586.369124 335.153849 
L 601.644289 335.153849 
" style="fill:none;stroke:#505050;stroke-linecap:round;stroke-width:1.5;"/>
   </g>
   <g id="line2d_62">
    <path clip-path="url(#pd40c2480ce)" d="M 586.369124 15.694959 
L 601.644289 15.694959 
" style="fill:none;stroke:#505050;stroke-linecap:round;stroke-width:1.5;"/>
   </g>
   <g id="line2d_63">
    <path clip-path="url(#pd40c2480ce)" d="M 625.180512 172.494194 
L 625.180512 350.689777 
" style="fill:none;stroke:#505050;stroke-linecap:round;stroke-width:1.5;"/>
   </g>
   <g id="line2d_64">
    <path clip-path="url(#pd40c2480ce)" d="M 625.180512 53.647207 
L 625.180512 15.604333 
" style="fill:none;stroke:#505050;stroke-linecap:round;stroke-width:1.5;"/>
   </g>
   <g id="line2d_65">
    <path clip-path="url(#pd40c2480ce)" d="M 617.54293 350.689777 
L 632.818095 350.689777 
" style="fill:none;stroke:#505050;stroke-linecap:round;stroke-width:1.5;"/>
   </g>
   <g id="line2d_66">
    <path clip-path="url(#pd40c2480ce)" d="M 617.54293 15.604333 
L 632.818095 15.604333 
" style="fill:none;stroke:#505050;stroke-linecap:round;stroke-width:1.5;"/>
   </g>
   <g id="line2d_67">
    <path clip-path="url(#pd40c2480ce)" d="M 656.354319 105.115143 
L 656.354319 204.095212 
" style="fill:none;stroke:#505050;stroke-linecap:round;stroke-width:1.5;"/>
   </g>
   <g id="line2d_68">
    <path clip-path="url(#pd40c2480ce)" d="M 656.354319 39.125093 
L 656.354319 15.65167 
" style="fill:none;stroke:#505050;stroke-linecap:round;stroke-width:1.5;"/>
   </g>
   <g id="line2d_69">
    <path clip-path="url(#pd40c2480ce)" d="M 648.716736 204.095212 
L 663.991901 204.095212 
" style="fill:none;stroke:#505050;stroke-linecap:round;stroke-width:1.5;"/>
   </g>
   <g id="line2d_70">
    <path clip-path="url(#pd40c2480ce)" d="M 648.716736 15.65167 
L 663.991901 15.65167 
" style="fill:none;stroke:#505050;stroke-linecap:round;stroke-width:1.5;"/>
   </g>
   <g id="line2d_71">
    <path clip-path="url(#pd40c2480ce)" d="M 79.950641 64.08676 
L 110.500971 64.08676 
" style="fill:none;stroke:#505050;stroke-linecap:round;stroke-width:1.5;"/>
   </g>
   <g id="line2d_72">
    <path clip-path="url(#pd40c2480ce)" d="M 111.124447 50.436322 
L 141.674778 50.436322 
" style="fill:none;stroke:#505050;stroke-linecap:round;stroke-width:1.5;"/>
   </g>
   <g id="line2d_73">
    <path clip-path="url(#pd40c2480ce)" d="M 142.298254 75.864439 
L 172.848584 75.864439 
" style="fill:none;stroke:#505050;stroke-linecap:round;stroke-width:1.5;"/>
   </g>
   <g id="line2d_74">
    <path clip-path="url(#pd40c2480ce)" d="M 173.47206 49.399995 
L 204.02239 49.399995 
" style="fill:none;stroke:#505050;stroke-linecap:round;stroke-width:1.5;"/>
   </g>
   <g id="line2d_75">
    <path clip-path="url(#pd40c2480ce)" d="M 235.819672 95.784222 
L 266.370003 95.784222 
" style="fill:none;stroke:#505050;stroke-linecap:round;stroke-width:1.5;"/>
   </g>
   <g id="line2d_76">
    <path clip-path="url(#pd40c2480ce)" d="M 266.993479 33.787686 
L 297.543809 33.787686 
" style="fill:none;stroke:#505050;stroke-linecap:round;stroke-width:1.5;"/>
   </g>
   <g id="line2d_77">
    <path clip-path="url(#pd40c2480ce)" d="M 298.167285 39.856752 
L 328.717615 39.856752 
" style="fill:none;stroke:#505050;stroke-linecap:round;stroke-width:1.5;"/>
   </g>
   <g id="line2d_78">
    <path clip-path="url(#pd40c2480ce)" d="M 329.341091 36.200518 
L 359.891421 36.200518 
" style="fill:none;stroke:#505050;stroke-linecap:round;stroke-width:1.5;"/>
   </g>
   <g id="line2d_79">
    <path clip-path="url(#pd40c2480ce)" d="M 391.688704 105.401394 
L 422.239034 105.401394 
" style="fill:none;stroke:#505050;stroke-linecap:round;stroke-width:1.5;"/>
   </g>
   <g id="line2d_80">
    <path clip-path="url(#pd40c2480ce)" d="M 422.86251 44.372481 
L 453.41284 44.372481 
" style="fill:none;stroke:#505050;stroke-linecap:round;stroke-width:1.5;"/>
   </g>
   <g id="line2d_81">
    <path clip-path="url(#pd40c2480ce)" d="M 454.036316 50.282569 
L 484.586646 50.282569 
" style="fill:none;stroke:#505050;stroke-linecap:round;stroke-width:1.5;"/>
   </g>
   <g id="line2d_82">
    <path clip-path="url(#pd40c2480ce)" d="M 485.210122 47.641662 
L 515.760453 47.641662 
" style="fill:none;stroke:#505050;stroke-linecap:round;stroke-width:1.5;"/>
   </g>
   <g id="line2d_83">
    <path clip-path="url(#pd40c2480ce)" d="M 547.557735 137.009648 
L 578.108065 137.009648 
" style="fill:none;stroke:#505050;stroke-linecap:round;stroke-width:1.5;"/>
   </g>
   <g id="line2d_84">
    <path clip-path="url(#pd40c2480ce)" d="M 578.731541 89.401751 
L 609.281871 89.401751 
" style="fill:none;stroke:#505050;stroke-linecap:round;stroke-width:1.5;"/>
   </g>
   <g id="line2d_85">
    <path clip-path="url(#pd40c2480ce)" d="M 609.905347 92.637618 
L 640.455678 92.637618 
" style="fill:none;stroke:#505050;stroke-linecap:round;stroke-width:1.5;"/>
   </g>
   <g id="line2d_86">
    <path clip-path="url(#pd40c2480ce)" d="M 641.079154 62.010593 
L 671.629484 62.010593 
" style="fill:none;stroke:#505050;stroke-linecap:round;stroke-width:1.5;"/>
   </g>
   <g id="patch_23">
    <path d="M 64.052 519.948 
L 687.528125 519.948 
" style="fill:none;stroke:#cccccc;stroke-linecap:square;stroke-linejoin:miter;stroke-width:1.25;"/>
   </g>
   <g id="legend_1">
    <g id="patch_24">
     <path d="M 72.452 513.948 
L 318.018875 513.948 
Q 320.418875 513.948 320.418875 511.548 
L 320.418875 442.293 
Q 320.418875 439.893 318.018875 439.893 
L 72.452 439.893 
Q 70.052 439.893 70.052 442.293 
L 70.052 511.548 
Q 70.052 513.948 72.452 513.948 
z
" style="fill:#ffffff;opacity:0.8;stroke:#cccccc;stroke-linejoin:miter;"/>
    </g>
    <g id="patch_25">
     <path d="M 74.852 453.811125 
L 98.852 453.811125 
L 98.852 445.411125 
L 74.852 445.411125 
z
" style="fill:#e4be42;stroke:#505050;stroke-linejoin:miter;stroke-width:0.75;"/>
    </g>
    <g id="text_13">
     <!-- 2019 HCD model -->
     <g style="fill:#262626;" transform="translate(108.452 453.811125)scale(0.12 -0.12)">
      <defs>
       <path d="M 703 97 
L 703 672 
Q 941 559 1184 500 
Q 1428 441 1663 441 
Q 2288 441 2617 861 
Q 2947 1281 2994 2138 
Q 2813 1869 2534 1725 
Q 2256 1581 1919 1581 
Q 1219 1581 811 2004 
Q 403 2428 403 3163 
Q 403 3881 828 4315 
Q 1253 4750 1959 4750 
Q 2769 4750 3195 4129 
Q 3622 3509 3622 2328 
Q 3622 1225 3098 567 
Q 2575 -91 1691 -91 
Q 1453 -91 1209 -44 
Q 966 3 703 97 
z
M 1959 2075 
Q 2384 2075 2632 2365 
Q 2881 2656 2881 3163 
Q 2881 3666 2632 3958 
Q 2384 4250 1959 4250 
Q 1534 4250 1286 3958 
Q 1038 3666 1038 3163 
Q 1038 2656 1286 2365 
Q 1534 2075 1959 2075 
z
" id="DejaVuSans-39" transform="scale(0.015625)"/>
       <path d="M 4122 4306 
L 4122 3641 
Q 3803 3938 3442 4084 
Q 3081 4231 2675 4231 
Q 1875 4231 1450 3742 
Q 1025 3253 1025 2328 
Q 1025 1406 1450 917 
Q 1875 428 2675 428 
Q 3081 428 3442 575 
Q 3803 722 4122 1019 
L 4122 359 
Q 3791 134 3420 21 
Q 3050 -91 2638 -91 
Q 1578 -91 968 557 
Q 359 1206 359 2328 
Q 359 3453 968 4101 
Q 1578 4750 2638 4750 
Q 3056 4750 3426 4639 
Q 3797 4528 4122 4306 
z
" id="DejaVuSans-43" transform="scale(0.015625)"/>
       <path d="M 1259 4147 
L 1259 519 
L 2022 519 
Q 2988 519 3436 956 
Q 3884 1394 3884 2338 
Q 3884 3275 3436 3711 
Q 2988 4147 2022 4147 
L 1259 4147 
z
M 628 4666 
L 1925 4666 
Q 3281 4666 3915 4102 
Q 4550 3538 4550 2338 
Q 4550 1131 3912 565 
Q 3275 0 1925 0 
L 628 0 
L 628 4666 
z
" id="DejaVuSans-44" transform="scale(0.015625)"/>
      </defs>
      <use xlink:href="#DejaVuSans-32"/>
      <use x="63.623047" xlink:href="#DejaVuSans-30"/>
      <use x="127.246094" xlink:href="#DejaVuSans-31"/>
      <use x="190.869141" xlink:href="#DejaVuSans-39"/>
      <use x="254.492188" xlink:href="#DejaVuSans-20"/>
      <use x="286.279297" xlink:href="#DejaVuSans-48"/>
      <use x="361.474609" xlink:href="#DejaVuSans-43"/>
      <use x="431.298828" xlink:href="#DejaVuSans-44"/>
      <use x="508.300781" xlink:href="#DejaVuSans-20"/>
      <use x="540.087891" xlink:href="#DejaVuSans-6d"/>
      <use x="637.5" xlink:href="#DejaVuSans-6f"/>
      <use x="698.681641" xlink:href="#DejaVuSans-64"/>
      <use x="762.158203" xlink:href="#DejaVuSans-65"/>
      <use x="823.681641" xlink:href="#DejaVuSans-6c"/>
     </g>
    </g>
    <g id="patch_26">
     <path d="M 74.852 471.424875 
L 98.852 471.424875 
L 98.852 463.024875 
L 74.852 463.024875 
z
" style="fill:#54a8e5;stroke:#505050;stroke-linejoin:miter;stroke-width:0.75;"/>
    </g>
    <g id="text_14">
     <!-- Immunopeptide model -->
     <g style="fill:#262626;" transform="translate(108.452 471.424875)scale(0.12 -0.12)">
      <use xlink:href="#DejaVuSans-49"/>
      <use x="29.492188" xlink:href="#DejaVuSans-6d"/>
      <use x="126.904297" xlink:href="#DejaVuSans-6d"/>
      <use x="224.316406" xlink:href="#DejaVuSans-75"/>
      <use x="287.695312" xlink:href="#DejaVuSans-6e"/>
      <use x="351.074219" xlink:href="#DejaVuSans-6f"/>
      <use x="412.255859" xlink:href="#DejaVuSans-70"/>
      <use x="475.732422" xlink:href="#DejaVuSans-65"/>
      <use x="537.255859" xlink:href="#DejaVuSans-70"/>
      <use x="600.732422" xlink:href="#DejaVuSans-74"/>
      <use x="639.941406" xlink:href="#DejaVuSans-69"/>
      <use x="667.724609" xlink:href="#DejaVuSans-64"/>
      <use x="731.201172" xlink:href="#DejaVuSans-65"/>
      <use x="792.724609" xlink:href="#DejaVuSans-20"/>
      <use x="824.511719" xlink:href="#DejaVuSans-6d"/>
      <use x="921.923828" xlink:href="#DejaVuSans-6f"/>
      <use x="983.105469" xlink:href="#DejaVuSans-64"/>
      <use x="1046.582031" xlink:href="#DejaVuSans-65"/>
      <use x="1108.105469" xlink:href="#DejaVuSans-6c"/>
     </g>
    </g>
    <g id="patch_27">
     <path d="M 74.852 489.038625 
L 98.852 489.038625 
L 98.852 480.638625 
L 74.852 480.638625 
z
" style="fill:#e2717e;stroke:#505050;stroke-linejoin:miter;stroke-width:0.75;"/>
    </g>
    <g id="text_15">
     <!-- Non-tryptic immunopeptide model -->
     <g style="fill:#262626;" transform="translate(108.452 489.038625)scale(0.12 -0.12)">
      <defs>
       <path d="M 628 4666 
L 1478 4666 
L 3547 763 
L 3547 4666 
L 4159 4666 
L 4159 0 
L 3309 0 
L 1241 3903 
L 1241 0 
L 628 0 
L 628 4666 
z
" id="DejaVuSans-4e" transform="scale(0.015625)"/>
      </defs>
      <use xlink:href="#DejaVuSans-4e"/>
      <use x="74.804688" xlink:href="#DejaVuSans-6f"/>
      <use x="135.986328" xlink:href="#DejaVuSans-6e"/>
      <use x="199.365234" xlink:href="#DejaVuSans-2d"/>
      <use x="235.449219" xlink:href="#DejaVuSans-74"/>
      <use x="274.658203" xlink:href="#DejaVuSans-72"/>
      <use x="315.771484" xlink:href="#DejaVuSans-79"/>
      <use x="374.951172" xlink:href="#DejaVuSans-70"/>
      <use x="438.427734" xlink:href="#DejaVuSans-74"/>
      <use x="477.636719" xlink:href="#DejaVuSans-69"/>
      <use x="505.419922" xlink:href="#DejaVuSans-63"/>
      <use x="560.400391" xlink:href="#DejaVuSans-20"/>
      <use x="592.1875" xlink:href="#DejaVuSans-69"/>
      <use x="619.970703" xlink:href="#DejaVuSans-6d"/>
      <use x="717.382812" xlink:href="#DejaVuSans-6d"/>
      <use x="814.794922" xlink:href="#DejaVuSans-75"/>
      <use x="878.173828" xlink:href="#DejaVuSans-6e"/>
      <use x="941.552734" xlink:href="#DejaVuSans-6f"/>
      <use x="1002.734375" xlink:href="#DejaVuSans-70"/>
      <use x="1066.210938" xlink:href="#DejaVuSans-65"/>
      <use x="1127.734375" xlink:href="#DejaVuSans-70"/>
      <use x="1191.210938" xlink:href="#DejaVuSans-74"/>
      <use x="1230.419922" xlink:href="#DejaVuSans-69"/>
      <use x="1258.203125" xlink:href="#DejaVuSans-64"/>
      <use x="1321.679688" xlink:href="#DejaVuSans-65"/>
      <use x="1383.203125" xlink:href="#DejaVuSans-20"/>
      <use x="1414.990234" xlink:href="#DejaVuSans-6d"/>
      <use x="1512.402344" xlink:href="#DejaVuSans-6f"/>
      <use x="1573.583984" xlink:href="#DejaVuSans-64"/>
      <use x="1637.060547" xlink:href="#DejaVuSans-65"/>
      <use x="1698.583984" xlink:href="#DejaVuSans-6c"/>
     </g>
    </g>
    <g id="patch_28">
     <path d="M 74.852 506.652375 
L 98.852 506.652375 
L 98.852 498.252375 
L 74.852 498.252375 
z
" style="fill:#40d13b;stroke:#505050;stroke-linejoin:miter;stroke-width:0.75;"/>
    </g>
    <g id="text_16">
     <!-- Immuno-chymotrypsin model -->
     <g style="fill:#262626;" transform="translate(108.452 506.652375)scale(0.12 -0.12)">
      <use xlink:href="#DejaVuSans-49"/>
      <use x="29.492188" xlink:href="#DejaVuSans-6d"/>
      <use x="126.904297" xlink:href="#DejaVuSans-6d"/>
      <use x="224.316406" xlink:href="#DejaVuSans-75"/>
      <use x="287.695312" xlink:href="#DejaVuSans-6e"/>
      <use x="351.074219" xlink:href="#DejaVuSans-6f"/>
      <use x="414.130859" xlink:href="#DejaVuSans-2d"/>
      <use x="450.214844" xlink:href="#DejaVuSans-63"/>
      <use x="505.195312" xlink:href="#DejaVuSans-68"/>
      <use x="568.574219" xlink:href="#DejaVuSans-79"/>
      <use x="627.753906" xlink:href="#DejaVuSans-6d"/>
      <use x="725.166016" xlink:href="#DejaVuSans-6f"/>
      <use x="786.347656" xlink:href="#DejaVuSans-74"/>
      <use x="825.556641" xlink:href="#DejaVuSans-72"/>
      <use x="866.669922" xlink:href="#DejaVuSans-79"/>
      <use x="925.849609" xlink:href="#DejaVuSans-70"/>
      <use x="989.326172" xlink:href="#DejaVuSans-73"/>
      <use x="1041.425781" xlink:href="#DejaVuSans-69"/>
      <use x="1069.208984" xlink:href="#DejaVuSans-6e"/>
      <use x="1132.587891" xlink:href="#DejaVuSans-20"/>
      <use x="1164.375" xlink:href="#DejaVuSans-6d"/>
      <use x="1261.787109" xlink:href="#DejaVuSans-6f"/>
      <use x="1322.96875" xlink:href="#DejaVuSans-64"/>
      <use x="1386.445312" xlink:href="#DejaVuSans-65"/>
      <use x="1447.96875" xlink:href="#DejaVuSans-6c"/>
     </g>
    </g>
   </g>
  </g>
  <g id="text_17">
   <!-- A -->
   <g style="fill:#262626;" transform="translate(82.297267 -2.405522)scale(0.119952 -0.119952)">
    <use xlink:href="#DejaVuSans-41"/>
   </g>
  </g>
 </g>
 <defs>
  <clipPath id="pd40c2480ce">
   <rect height="504.396" width="623.476125" x="64.052" y="15.552"/>
  </clipPath>
 </defs>
</svg>
